<svg xmlns="http://www.w3.org/2000/svg" width="1440" height="346" viewBox="0 0 1440 346" fill="none">
<path fill-rule="evenodd" clip-rule="evenodd" d="M1287.1 3.71933H1287.11L1300.43 5.71074H1300.43V5.7114L1395.81 19.9627H1395.81L1460 29.5552V31.1342L1456.27 30.5761H1433.13L1444.79 32.4021H1460V33.9643H1454.77L1460 34.7825V37.572H1441.86L1455.72 39.851H1460V40.554L1460 40.5543V42.1568L1455.45 41.4095H1428.09L1442.8 43.9557H1460V45.5178H1451.83L1460 46.9311V49.9134H1437.54L1454.82 53.0681H1460V55.6278L1454.54 54.6303H1422.24L1440.4 58.1432H1460V59.7054H1448.48L1460 61.9335V63.5498L1440.12 59.7054H1405.81L1424.85 63.6175H1460V65.176H1432.44L1453.68 69.5412H1460V72.4661L1453.37 71.1034H1415.14L1437.35 75.9725H1460V77.5343H1444.48L1460 80.936V82.5691L1437.03 77.5343H1396.38L1419.58 82.9815H1460V84.5437H1426.23L1452.22 90.6467H1460V92.2089H1458.88L1460 92.4727V94.1194L1451.86 92.2089H1406.32L1433.42 99.0627H1460V100.625H1439.6L1460 105.785V107.441L1433.04 100.625H1384.48L1412.68 108.351H1460V109.913H1418.38L1450.27 118.65H1460V120.208H1455.96L1460 121.314V122.988L1449.85 120.208H1394.89L1428.12 130.139H1460V131.701H1433.34L1460 139.668V141.361L1427.68 131.701H1368.78L1403.25 143.032H1460V144.594H1408L1447.58 157.605H1460V159.167H1452.33L1460 161.689V163.414L1447.08 159.167H1379.41L1420.6 174.21H1460V175.772H1424.87L1460 188.604V190.362L1420.06 175.772H1346.91L1389.57 193.304H1460V194.866H1393.37L1443.56 215.491H1460V217.053H1447.36L1460 222.247V224.052L1442.97 217.053H1356.85L1409.1 241.59H1460V243.153H1412.43L1460 265.496V267.372L1408.43 243.153H1313.98L1367.97 272.732H1460V274.293H1370.82L1436.96 310.537H1460V312.099H1439.81L1460 323.159V325.133L1436.21 312.099H1320.41L1389.32 357.404H1460V358.966H1391.69L1460 403.878V406.012L1388.45 358.966H1258.05L1328.69 417.025H1460V418.586H1330.59L1424.1 495.438H1460V497H-19V495.438H21.276L114.782 418.586H-19V417.025H116.683L187.324 358.966H56.9279L-19 408.889V406.753L53.6787 358.966H-19V357.404H56.0546L124.959 312.099H9.16422L-19 327.531V325.556L5.56037 312.099H-19V310.537H8.41143L74.5583 274.293H-19V272.732H77.409L131.393 243.153H36.9402L-19 269.425V267.551L32.9513 243.153H-19V241.59H36.2775L88.5237 217.053H2.40093L-19 225.848V224.046L-1.98478 217.053H-19V215.491H1.81652L52.007 194.866H-19V193.304H55.8086L98.4712 175.772H25.3207L-19 191.961V190.203L20.507 175.772H-19V174.21H24.7828L65.9648 159.167H-1.7114L-19 164.851V163.13L-6.94632 159.167H-19V157.605H-2.19444L37.3823 144.594H-19V143.032H42.1331L76.5988 131.701H17.7009L-19 142.67V140.976L12.0331 131.701H-19V130.139H17.2588L50.4872 120.208H-4.47298L-19 124.188V122.515L-10.5825 120.208H-19V118.65H-4.89362L26.9976 109.913H-19V106.89L5.7763 100.625H-19V99.0627H11.9525L39.0556 92.2089H-6.48704L-19 95.1473V93.5006L-13.4993 92.2089H-19V90.6467H-6.8466L19.1431 84.5437H-19V81.8962L0.901274 77.5343H-19V75.9725H8.02743L30.2426 71.1034H-7.99066L-19 73.3656V71.739L-15.9066 71.1034H-19V69.5412H-8.30366L12.9408 65.176H-19V62.7788L-3.10738 59.7054H-19V58.1432H4.97068L23.1359 54.6303H-9.1707L-19 56.4255V54.8129L-18.0002 54.6303H-19V53.0681H-9.44706L7.82504 49.9134H-19V47.6852L-6.47318 45.5178H-19V43.9557H2.55545L17.2713 41.4095H-10.0925L-19 42.8736V39.851H-10.36L3.5047 37.572H-19V35.469L-9.38895 33.9643H-19V32.4021H0.588928L12.2523 30.5761H-10.8988L-19 31.7866V30.2076L144.937 5.71107L144.941 5.71074L158.265 3.71966L158.268 3.71933L183.159 0H1262.21L1287.1 3.71933ZM24.1905 495.438H196.405L266.535 418.586H117.697L24.1905 495.438ZM199.033 495.438H371.505L418.258 418.586H269.164L199.033 495.438ZM373.915 495.438H546.566L569.943 418.586H420.668L373.915 495.438ZM548.83 495.438H721.578V418.586H572.207L548.83 495.438ZM723.789 495.438H896.545L873.168 418.586H723.789V495.438ZM898.805 495.438H1071.46L1024.71 418.586H875.428L898.805 495.438ZM1073.87 495.438H1246.34L1176.21 418.586H1027.11L1073.87 495.438ZM1248.97 495.438H1421.18L1327.68 418.586H1178.84L1248.97 495.438ZM119.597 417.025H267.96L320.941 358.966H190.238L119.597 417.025ZM270.589 417.025H419.208L454.529 358.966H323.57L270.589 417.025ZM421.618 417.025H570.418L588.079 358.966H456.939L421.618 417.025ZM572.681 417.025H721.578V358.966H590.342L572.681 417.025ZM723.789 417.025H872.693L855.033 358.966H723.789V417.025ZM874.953 417.025H1023.76L988.436 358.966H857.293L874.953 417.025ZM1026.16 417.025H1174.78L1121.8 358.966H990.842L1026.16 417.025ZM1177.41 417.025H1325.78L1255.14 358.966H1124.43L1177.41 417.025ZM59.3039 357.404H189.224L244.348 312.099H128.208L59.3039 357.404ZM192.139 357.404H322.367L363.709 312.099H247.262L192.139 357.404ZM324.995 357.404H455.479L483.041 312.099H366.338L324.995 357.404ZM457.889 357.404H588.554L602.335 312.099H485.451L457.889 357.404ZM590.817 357.404H721.578V312.099H604.597L590.817 357.404ZM723.789 357.404H854.557L840.776 312.099H723.789V357.404ZM856.818 357.404H987.485L959.924 312.099H843.037L856.818 357.404ZM989.892 357.404H1120.38L1079.03 312.099H962.33L989.892 357.404ZM1123.01 357.404H1253.24L1198.11 312.099H1081.66L1123.01 357.404ZM1256.15 357.404H1386.07L1317.17 312.099H1201.03L1256.15 357.404ZM12.0153 310.537H127.335L182.457 274.293H78.1625L12.0153 310.537ZM130.584 310.537H246.248L290.346 274.293H185.706L130.584 310.537ZM249.163 310.537H365.135L398.208 274.293H293.261L249.163 310.537ZM367.764 310.537H483.992L506.04 274.293H400.837L367.764 310.537ZM486.401 310.537H602.811L613.835 274.293H508.45L486.401 310.537ZM605.073 310.537H721.578V274.293H616.097L605.073 310.537ZM723.789 310.537H840.301L829.276 274.293H723.789V310.537ZM842.562 310.537H958.974L936.924 274.293H831.538L842.562 310.537ZM961.38 310.537H1077.61L1044.53 274.293H939.331L961.38 310.537ZM1080.24 310.537H1196.21L1152.11 274.293H1047.17L1080.24 310.537ZM1199.12 310.537H1314.79L1259.67 274.293H1155.03L1199.12 310.537ZM1318.04 310.537H1433.36L1367.21 274.293H1262.91L1318.04 310.537ZM81.0129 272.732H184.833L229.819 243.153H134.997L81.0129 272.732ZM188.081 272.732H292.246L328.235 243.153H233.068L188.081 272.732ZM295.161 272.732H399.633L426.625 243.153H331.15L295.161 272.732ZM402.263 272.732H506.991L524.985 243.153H429.255L402.263 272.732ZM509.401 272.732H614.311L623.308 243.153H527.395L509.401 272.732ZM616.572 272.732H721.578V243.153H625.569L616.572 272.732ZM723.789 272.732H828.801L819.804 243.153H723.789V272.732ZM831.063 272.732H935.974L917.98 243.153H822.065L831.063 272.732ZM938.381 272.732H1043.11L1016.12 243.153H920.386L938.381 272.732ZM1045.74 272.732H1150.21L1114.22 243.153H1018.75L1045.74 272.732ZM1153.13 272.732H1257.29L1212.31 243.153H1117.14L1153.13 272.732ZM1260.54 272.732H1364.36L1310.38 243.153H1215.55L1260.54 272.732ZM40.2667 241.59H134.244L179.027 217.053H92.5128L40.2667 241.59ZM137.848 241.59H232.195L269.514 217.053H182.631L137.848 241.59ZM235.443 241.59H330.136L359.991 217.053H272.762L235.443 241.59ZM333.051 241.59H428.05L450.442 217.053H362.905L333.051 241.59ZM430.68 241.59H525.936L540.863 217.053H453.071L430.68 241.59ZM528.346 241.59H623.783L631.247 217.053H543.273L528.346 241.59ZM626.045 241.59H721.578V217.053H633.508L626.045 241.59ZM723.789 241.59H819.329L811.865 217.053H723.789V241.59ZM821.59 241.59H917.029L902.102 217.053H814.127L821.59 241.59ZM919.436 241.59H1014.69L992.3 217.053H904.508L919.436 241.59ZM1017.32 241.59H1112.32L1082.47 217.053H994.931L1017.32 241.59ZM1115.24 241.59H1209.93L1172.61 217.053H1085.38L1115.24 241.59ZM1213.18 241.59H1307.53L1262.74 217.053H1175.86L1213.18 241.59ZM1311.13 241.59H1405.1L1352.86 217.053H1266.35L1311.13 241.59ZM6.20223 215.491H91.8499L135.767 194.866H56.3927L6.20223 215.491ZM95.839 215.491H181.878L219.52 194.866H139.756L95.839 215.491ZM185.482 215.491H271.89L303.259 194.866H223.125L185.482 215.491ZM275.138 215.491H361.891L386.987 194.866H306.507L275.138 215.491ZM364.806 215.491H451.867L470.689 194.866H389.901L364.806 215.491ZM454.497 215.491H541.813L554.361 194.866H473.318L454.497 215.491ZM544.223 215.491H631.722L637.996 194.866H556.771L544.223 215.491ZM633.983 215.491H721.578V194.866H640.257L633.983 215.491ZM723.789 215.491H811.39L805.116 194.866H723.789V215.491ZM813.651 215.491H901.151L888.604 194.866H807.378L813.651 215.491ZM903.558 215.491H990.874L972.053 194.866H891.01L903.558 215.491ZM993.505 215.491H1080.57L1055.47 194.866H974.684L993.505 215.491ZM1083.48 215.491H1170.24L1138.87 194.866H1058.39L1083.48 215.491ZM1173.48 215.491H1259.89L1222.25 194.866H1142.11L1173.48 215.491ZM1263.5 215.491H1349.53L1305.62 194.866H1225.85L1263.5 215.491ZM1353.53 215.491H1439.17L1388.98 194.866H1309.61L1353.53 215.491ZM60.1944 193.304H139.093L176.422 175.772H102.857L60.1944 193.304ZM143.082 193.304H222.372L254.368 175.772H180.412L143.082 193.304ZM225.976 193.304H305.635L332.299 175.772H257.973L225.976 193.304ZM308.883 193.304H388.887L410.218 175.772H335.546L308.883 193.304ZM391.802 193.304H472.114L488.113 175.772H413.133L391.802 193.304ZM474.744 193.304H555.311L565.977 175.772H490.742L474.744 193.304ZM557.721 193.304H638.471L643.804 175.772H568.387L557.721 193.304ZM640.732 193.304H721.578V175.772H646.065L640.732 193.304ZM723.789 193.304H804.641L799.308 175.772H723.789V193.304ZM806.902 193.304H887.654L876.988 175.772H801.57L806.902 193.304ZM890.06 193.304H970.627L954.629 175.772H879.394L890.06 193.304ZM973.258 193.304H1053.57L1032.24 175.772H957.26L973.258 193.304ZM1056.48 193.304H1136.49L1109.83 175.772H1035.15L1056.48 193.304ZM1139.74 193.304H1219.4L1187.4 175.772H1113.07L1139.74 193.304ZM1223 193.304H1302.29L1264.96 175.772H1191.01L1223 193.304ZM1306.28 193.304H1385.18L1342.51 175.772H1268.95L1306.28 193.304ZM29.5964 174.21H102.271L138.878 159.167H70.7784L29.5964 174.21ZM106.658 174.21H179.748L211.779 159.167H143.264L106.658 174.21ZM183.738 174.21H257.219L284.674 159.167H215.769L183.738 174.21ZM260.823 174.21H334.674L357.553 159.167H288.278L260.823 174.21ZM337.922 174.21H412.119L430.422 159.167H360.801L337.922 174.21ZM415.033 174.21H489.538L503.265 159.167H433.337L415.033 174.21ZM492.168 174.21H566.927L576.079 159.167H505.895L492.168 174.21ZM569.337 174.21H644.279L648.855 159.167H578.489L569.337 174.21ZM646.54 174.21H721.578V159.167H651.116L646.54 174.21ZM723.789 174.21H798.833L794.257 159.167H723.789V174.21ZM801.095 174.21H876.038L866.886 159.167H796.519L801.095 174.21ZM878.444 174.21H953.203L939.476 159.167H869.292L878.444 174.21ZM955.835 174.21H1030.34L1012.04 159.167H942.107L955.835 174.21ZM1033.25 174.21H1107.45L1084.57 159.167H1014.95L1033.25 174.21ZM1110.7 174.21H1184.55L1157.1 159.167H1087.82L1110.7 174.21ZM1188.15 174.21H1261.63L1229.6 159.167H1160.7L1188.15 174.21ZM1265.63 174.21H1338.71L1302.11 159.167H1233.6L1265.63 174.21ZM1343.1 174.21H1415.78L1374.6 159.167H1306.5L1343.1 174.21ZM3.04015 157.605H70.2416L105.861 144.594H42.6169L3.04015 157.605ZM75.0549 157.605H142.68L174.341 144.594H110.674L75.0549 157.605ZM147.065 157.605H215.105L242.809 144.594H178.727L147.065 157.605ZM219.095 157.605H287.525L311.271 144.594H246.799L219.095 157.605ZM291.129 157.605H359.929L379.718 144.594H314.876L291.129 157.605ZM363.176 157.605H432.323L448.153 144.594H382.965L363.176 157.605ZM435.237 157.605H504.691L516.564 144.594H451.068L435.237 157.605ZM507.321 157.605H577.029L584.945 144.594H519.194L507.321 157.605ZM579.439 157.605H649.331L653.288 144.594H587.354L579.439 157.605ZM651.591 157.605H721.578V144.594H655.549L651.591 157.605ZM723.789 157.605H793.782L789.824 144.594H723.789V157.605ZM796.044 157.605H865.936L858.02 144.594H792.086L796.044 157.605ZM868.342 157.605H938.05L926.177 144.594H860.427L868.342 157.605ZM940.682 157.605H1010.14L994.307 144.594H928.808L940.682 157.605ZM1013.05 157.605H1082.2L1062.41 144.594H997.219L1013.05 157.605ZM1085.44 157.605H1154.25L1130.5 144.594H1065.65L1085.44 157.605ZM1157.85 157.605H1226.28L1198.57 144.594H1134.1L1157.85 157.605ZM1230.27 157.605H1298.3L1266.64 144.594H1202.57L1230.27 157.605ZM1302.7 157.605H1370.32L1334.7 144.594H1271.04L1302.7 157.605ZM1375.14 157.605H1442.33L1402.75 144.594H1339.52L1375.14 157.605ZM47.3677 143.032H110.137L141.155 131.701H81.833L47.3677 143.032ZM114.95 143.032H178.142L205.714 131.701H145.969L114.95 143.032ZM182.528 143.032H246.134L270.26 131.701H210.1L182.528 143.032ZM250.124 143.032H314.121L334.801 131.701H274.251L250.124 143.032ZM317.726 143.032H382.093L399.326 131.701H338.405L317.726 143.032ZM385.34 143.032H450.054L463.84 131.701H402.573L385.34 143.032ZM452.968 143.032H517.989L528.329 131.701H466.755L452.968 143.032ZM520.619 143.032H585.895L592.788 131.701H530.959L520.619 143.032ZM588.305 143.032H653.763L657.21 131.701H595.198L588.305 143.032ZM656.024 143.032H721.578V131.701H659.47L656.024 143.032ZM723.789 143.032H789.349L785.902 131.701H723.789V143.032ZM791.611 143.032H857.07L850.177 131.701H788.164L791.611 143.032ZM859.476 143.032H924.752L914.413 131.701H852.583L859.476 143.032ZM927.383 143.032H992.406L978.62 131.701H917.043L927.383 143.032ZM995.318 143.032H1060.03L1042.8 131.701H981.532L995.318 143.032ZM1063.28 143.032H1127.65L1106.97 131.701H1046.05L1063.28 143.032ZM1131.25 143.032H1195.25L1171.12 131.701H1110.57L1131.25 143.032ZM1199.24 143.032H1262.84L1235.27 131.701H1175.12L1199.24 143.032ZM1267.23 143.032H1330.43L1299.41 131.701H1239.66L1267.23 143.032ZM1335.24 143.032H1398L1363.54 131.701H1304.22L1335.24 143.032ZM22.9266 130.139H81.3493L111.557 120.208H56.155L22.9266 130.139ZM86.5839 130.139H145.431L172.618 120.208H116.792L86.5839 130.139ZM150.245 130.139H209.515L233.681 120.208H177.432L150.245 130.139ZM213.901 130.139H273.586L294.731 120.208H238.067L213.901 130.139ZM277.576 130.139H337.651L355.776 120.208H298.722L277.576 130.139ZM341.256 130.139H401.701L416.805 120.208H359.381L341.256 130.139ZM404.948 130.139H465.74L477.823 120.208H420.052L404.948 130.139ZM468.655 130.139H529.754L538.816 120.208H480.738L468.655 130.139ZM532.384 130.139H593.738L599.78 120.208H541.446L532.384 130.139ZM596.148 130.139H657.685L660.706 120.208H602.19L596.148 130.139ZM659.945 130.139H721.578V120.208H662.966L659.945 130.139ZM723.789 130.139H785.427L782.406 120.208H723.789V130.139ZM787.689 130.139H849.227L843.185 120.208H784.668L787.689 130.139ZM851.633 130.139H912.987L903.925 120.208H845.592L851.633 130.139ZM915.618 130.139H976.72L964.637 120.208H906.556L915.618 130.139ZM979.632 130.139H1040.42L1025.32 120.208H967.549L979.632 130.139ZM1043.67 130.139H1104.12L1085.99 120.208H1028.57L1043.67 130.139ZM1107.72 130.139H1167.8L1146.65 120.208H1089.6L1107.72 130.139ZM1171.79 130.139H1231.47L1207.3 120.208H1150.64L1171.79 130.139ZM1235.86 130.139H1295.13L1267.94 120.208H1211.69L1235.86 130.139ZM1299.95 130.139H1358.79L1328.58 120.208H1272.76L1299.95 130.139ZM1364.03 130.139H1422.45L1389.22 120.208H1333.82L1364.03 130.139ZM1.21593 118.65H55.7017L84.935 109.913H33.1072L1.21593 118.65ZM61.3698 118.65H116.298L142.874 109.913H90.6034L61.3698 118.65ZM121.533 118.65H176.885L200.804 109.913H148.108L121.533 118.65ZM181.698 118.65H237.474L258.735 109.913H205.617L181.698 118.65ZM241.86 118.65H298.05L316.653 109.913H263.121L241.86 118.65ZM302.04 118.65H358.62L374.566 109.913H320.644L302.04 118.65ZM362.225 118.65H419.176L432.464 109.913H378.171L362.225 118.65ZM422.423 118.65H479.719L490.35 109.913H435.711L422.423 118.65ZM482.634 118.65H540.239L548.211 109.913H493.265L482.634 118.65ZM542.869 118.65H600.728L606.043 109.913H550.841L542.869 118.65ZM603.138 118.65H661.18L663.838 109.913H608.453L603.138 118.65ZM663.44 118.65H721.578V109.913H666.098L663.44 118.65ZM723.789 118.65H781.932L779.275 109.913H723.789V118.65ZM784.194 118.65H842.237L836.922 109.913H781.537L784.194 118.65ZM844.643 118.65H902.502L894.53 109.913H839.328L844.643 118.65ZM905.134 118.65H962.74L952.11 109.913H897.161L905.134 118.65ZM965.652 118.65H1022.95L1009.66 109.913H955.022L965.652 118.65ZM1026.2 118.65H1083.15L1067.2 109.913H1012.91L1026.2 118.65ZM1086.75 118.65H1143.33L1124.73 109.913H1070.81L1086.75 118.65ZM1147.33 118.65H1203.51L1182.25 109.913H1128.72L1147.33 118.65ZM1207.9 118.65H1263.68L1239.76 109.913H1186.64L1207.9 118.65ZM1268.49 118.65H1323.84L1297.26 109.913H1244.57L1268.49 118.65ZM1329.08 118.65H1384.01L1354.77 109.913H1302.5L1329.08 118.65ZM1389.68 118.65H1444.16L1412.27 109.913H1360.44L1389.68 118.65ZM-18.2112 108.351H32.6997L60.9016 100.625H12.3405L-18.2112 108.351ZM38.8093 108.351H90.162L116.013 100.625H67.0111L38.8093 108.351ZM95.8301 108.351H147.626L171.127 100.625H121.682L95.8301 108.351ZM152.86 108.351H205.08L226.232 100.625H176.362L152.86 108.351ZM209.894 108.351H262.536L281.337 100.625H231.045L209.894 108.351ZM266.922 108.351H319.979L336.43 100.625H285.724L266.922 108.351ZM323.97 108.351H377.417L391.518 100.625H340.421L323.97 108.351ZM381.022 108.351H434.84L446.59 100.625H395.123L381.022 108.351ZM438.087 108.351H492.251L501.651 100.625H449.837L438.087 108.351ZM495.165 108.351H549.637L556.688 100.625H504.566L495.165 108.351ZM552.267 108.351H606.994L611.694 100.625H559.318L552.267 108.351ZM609.403 108.351H664.313L666.663 100.625H614.104L609.403 108.351ZM666.573 108.351H721.578V100.625H668.923L666.573 108.351ZM723.789 108.351H778.799L776.449 100.625H723.789V108.351ZM781.062 108.351H835.972L831.271 100.625H778.711L781.062 108.351ZM838.378 108.351H893.104L886.053 100.625H833.678L838.378 108.351ZM895.735 108.351H950.209L940.809 100.625H888.684L895.735 108.351ZM953.121 108.351H1007.29L995.535 100.625H943.72L953.121 108.351ZM1010.53 108.351H1064.35L1050.25 100.625H998.78L1010.53 108.351ZM1067.96 108.351H1121.4L1104.95 100.625H1053.85L1067.96 108.351ZM1125.4 108.351H1178.45L1159.65 100.625H1108.94L1125.4 108.351ZM1182.84 108.351H1235.48L1214.33 100.625H1164.04L1182.84 108.351ZM1240.3 108.351H1292.51L1269.01 100.625H1219.15L1240.3 108.351ZM1297.75 108.351H1349.55L1323.69 100.625H1274.25L1297.75 108.351ZM1355.22 108.351H1406.57L1378.37 100.625H1329.36L1355.22 108.351ZM18.5164 99.0627H66.6024L91.62 92.2089H45.6185L18.5164 99.0627ZM72.7123 99.0627H121.239L144.172 92.2089H97.7299L72.7123 99.0627ZM126.907 99.0627H175.878L196.727 92.2089H149.84L126.907 99.0627ZM181.113 99.0627H230.507L249.271 92.2089H201.96L181.113 99.0627ZM235.321 99.0627H285.138L301.816 92.2089H254.084L235.321 99.0627ZM289.524 99.0627H339.756L354.35 92.2089H306.203L289.524 99.0627ZM343.747 99.0627H394.369L406.878 92.2089H358.34L343.747 99.0627ZM397.974 99.0627H448.966L459.39 92.2089H410.482L397.974 99.0627ZM452.213 99.0627H503.552L511.891 92.2089H462.637L452.213 99.0627ZM506.466 99.0627H558.113L564.367 92.2089H514.805L506.466 99.0627ZM560.743 99.0627H612.644L616.814 92.2089H566.997L560.743 99.0627ZM615.054 99.0627H667.138L669.223 92.2089H619.223L615.054 99.0627ZM669.398 99.0627H721.578V92.2089H671.483L669.398 99.0627ZM723.789 99.0627H775.974L773.889 92.2089H723.789V99.0627ZM778.236 99.0627H830.321L826.152 92.2089H776.152L778.236 99.0627ZM832.727 99.0627H884.628L878.374 92.2089H828.558L832.727 99.0627ZM887.259 99.0627H938.909L930.569 92.2089H881.005L887.259 99.0627ZM941.82 99.0627H993.159L982.735 92.2089H933.481L941.82 99.0627ZM996.405 99.0627H1047.4L1034.89 92.2089H985.981L996.405 99.0627ZM1051 99.0627H1101.63L1087.03 92.2089H1038.49L1051 99.0627ZM1105.62 99.0627H1155.85L1139.17 92.2089H1091.03L1105.62 99.0627ZM1160.24 99.0627H1210.05L1191.29 92.2089H1143.56L1160.24 99.0627ZM1214.87 99.0627H1264.26L1243.41 92.2089H1196.11L1214.87 99.0627ZM1269.5 99.0627H1318.47L1295.54 92.2089H1248.65L1269.5 99.0627ZM1324.14 99.0627H1372.67L1347.65 92.2089H1301.21L1324.14 99.0627ZM1378.78 99.0627H1426.87L1399.77 92.2089H1353.76L1378.78 99.0627ZM0.165316 90.6467H45.2328L69.3669 84.5437H26.1547L0.165316 90.6467ZM51.7957 90.6467H97.3222L119.599 84.5437H75.9285L51.7957 90.6467ZM103.432 90.6467H149.399L169.819 84.5437H125.709L103.432 90.6467ZM155.067 90.6467H201.478L220.042 84.5437H175.487L155.067 90.6467ZM206.712 90.6467H253.547L270.255 84.5437H225.276L206.712 90.6467ZM258.361 90.6467H305.618L320.469 84.5437H275.068L258.361 90.6467ZM310.004 90.6467H357.676L370.671 84.5437H324.855L310.004 90.6467ZM361.667 90.6467H409.729L420.867 84.5437H374.662L361.667 90.6467ZM413.334 90.6467H461.766L471.048 84.5437H424.472L413.334 90.6467ZM465.013 90.6467H513.792L521.217 84.5437H474.295L465.013 90.6467ZM516.706 90.6467H565.792L571.362 84.5437H524.132L516.706 90.6467ZM568.423 90.6467H617.764L621.477 84.5437H573.992L568.423 90.6467ZM620.174 90.6467H669.698L671.555 84.5437H623.887L620.174 90.6467ZM671.958 90.6467H721.578V84.5437H673.814L671.958 90.6467ZM723.789 90.6467H773.414L771.557 84.5437H723.789V90.6467ZM775.676 90.6467H825.201L821.488 84.5437H773.82L775.676 90.6467ZM827.607 90.6467H876.948L871.379 84.5437H823.894L827.607 90.6467ZM879.579 90.6467H928.668L921.243 84.5437H874.01L879.579 90.6467ZM931.58 90.6467H980.36L971.077 84.5437H924.155L931.58 90.6467ZM983.605 90.6467H1032.04L1020.9 84.5437H974.323L983.605 90.6467ZM1035.64 90.6467H1083.71L1070.71 84.5437H1024.51L1035.64 90.6467ZM1087.7 90.6467H1135.37L1120.52 84.5437H1074.7L1087.7 90.6467ZM1139.76 90.6467H1187.01L1170.31 84.5437H1124.91L1139.76 90.6467ZM1191.83 90.6467H1238.66L1220.09 84.5437H1175.12L1191.83 90.6467ZM1243.9 90.6467H1290.31L1269.89 84.5437H1225.34L1243.9 90.6467ZM1295.98 90.6467H1341.95L1319.67 84.5437H1275.56L1295.98 90.6467ZM1348.06 90.6467H1393.59L1369.45 84.5437H1325.78L1348.06 90.6467ZM1400.14 90.6467H1445.21L1419.22 84.5437H1376L1400.14 90.6467ZM-16.5006 82.9815H25.7954L48.9925 77.5343H8.35332L-16.5006 82.9815ZM32.807 82.9815H75.5442L97.0851 77.5343H56.0038L32.807 82.9815ZM82.1057 82.9815H125.301L145.184 77.5343H103.646L82.1057 82.9815ZM131.411 82.9815H175.046L193.272 77.5343H151.294L131.411 82.9815ZM180.714 82.9815H224.794L241.363 77.5343H198.941L180.714 82.9815ZM230.028 82.9815H274.531L289.444 77.5343H246.597L230.028 82.9815ZM279.345 82.9815H324.271L337.526 77.5343H294.257L279.345 82.9815ZM328.657 82.9815H373.997L385.596 77.5343H341.913L328.657 82.9815ZM377.988 82.9815H423.718L433.66 77.5343H389.587L377.988 82.9815ZM427.323 82.9815H473.424L481.708 77.5343H437.265L427.323 82.9815ZM476.671 82.9815H523.118L529.746 77.5343H484.955L476.671 82.9815ZM526.033 82.9815H572.787L577.758 77.5343H532.66L526.033 82.9815ZM575.418 82.9815H622.427L625.741 77.5343H580.388L575.418 82.9815ZM624.837 82.9815H672.03L673.687 77.5343H628.151L624.837 82.9815ZM674.29 82.9815H721.578V77.5343H675.947L674.29 82.9815ZM723.789 82.9815H771.082L769.426 77.5343H723.789V82.9815ZM773.345 82.9815H820.538L817.224 77.5343H771.688L773.345 82.9815ZM822.944 82.9815H869.953L864.983 77.5343H819.63L822.944 82.9815ZM872.584 82.9815H919.342L912.714 77.5343H867.614L872.584 82.9815ZM922.254 82.9815H968.701L960.417 77.5343H915.626L922.254 82.9815ZM971.947 82.9815H1018.05L1008.11 77.5343H963.662L971.947 82.9815ZM1021.65 82.9815H1067.39L1055.79 77.5343H1011.71L1021.65 82.9815ZM1071.38 82.9815H1116.71L1103.46 77.5343H1059.78L1071.38 82.9815ZM1121.11 82.9815H1166.03L1151.12 77.5343H1107.85L1121.11 82.9815ZM1170.84 82.9815H1215.34L1198.77 77.5343H1155.93L1170.84 82.9815ZM1220.58 82.9815H1264.66L1246.43 77.5343H1204.01L1220.58 82.9815ZM1270.33 82.9815H1313.97L1294.08 77.5343H1252.1L1270.33 82.9815ZM1320.08 82.9815H1363.28L1341.74 77.5343H1300.19L1320.08 82.9815ZM1369.83 82.9815H1412.57L1389.37 77.5343H1348.29L1369.83 82.9815ZM15.4791 75.9725H55.6436L76.3785 71.1034H37.6949L15.4791 75.9725ZM62.6548 75.9725H103.261L122.515 71.1034H83.3895L62.6548 75.9725ZM109.822 75.9725H150.885L168.658 71.1034H129.075L109.822 75.9725ZM156.995 75.9725H198.498L214.789 71.1034H174.768L156.995 75.9725ZM204.166 75.9725H246.114L260.925 71.1034H220.458L204.166 75.9725ZM251.348 75.9725H293.72L307.049 71.1034H266.159L251.348 75.9725ZM298.533 75.9725H341.327L353.175 71.1034H311.863L298.533 75.9725ZM345.713 75.9725H388.921L399.289 71.1034H357.562L345.713 75.9725ZM392.912 75.9725H436.511L445.397 71.1034H403.28L392.912 75.9725ZM440.115 75.9725H484.084L491.489 71.1034H449.002L440.115 75.9725ZM487.331 75.9725H531.646L537.57 71.1034H494.736L487.331 75.9725ZM534.56 75.9725H579.183L583.626 71.1034H540.485L534.56 75.9725ZM581.814 75.9725H626.691L629.653 71.1034H586.257L581.814 75.9725ZM629.101 75.9725H674.162L675.643 71.1034H632.063L629.101 75.9725ZM676.422 75.9725H721.578V71.1034H677.903L676.422 75.9725ZM723.789 75.9725H768.95L767.469 71.1034H723.789V75.9725ZM771.213 75.9725H816.274L813.312 71.1034H769.732L771.213 75.9725ZM818.68 75.9725H863.557L859.114 71.1034H815.718L818.68 75.9725ZM866.188 75.9725H910.814L904.89 71.1034H861.745L866.188 75.9725ZM913.726 75.9725H958.041L950.636 71.1034H907.801L913.726 75.9725ZM961.287 75.9725H1005.26L996.373 71.1034H953.882L961.287 75.9725ZM1008.86 75.9725H1052.46L1042.09 71.1034H999.975L1008.86 75.9725ZM1056.45 75.9725H1099.66L1087.81 71.1034H1046.09L1056.45 75.9725ZM1104.05 75.9725H1146.84L1133.51 71.1034H1092.2L1104.05 75.9725ZM1151.66 75.9725H1194.02L1179.21 71.1034H1138.33L1151.66 75.9725ZM1199.26 75.9725H1241.21L1224.92 71.1034H1184.45L1199.26 75.9725ZM1246.88 75.9725H1288.38L1270.61 71.1034H1230.59L1246.88 75.9725ZM1294.49 75.9725H1335.56L1316.31 71.1034H1276.72L1294.49 75.9725ZM1342.11 75.9725H1382.72L1361.99 71.1034H1322.86L1342.11 75.9725ZM1389.73 75.9725H1429.9L1407.68 71.1034H1369L1389.73 75.9725ZM-0.388058 69.5412H37.37L57.2865 65.176H20.856L-0.388058 69.5412ZM44.8228 69.5412H83.0309L101.62 65.176H64.7395L44.8228 69.5412ZM90.0418 69.5412H128.693L145.955 65.176H108.631L90.0418 69.5412ZM135.253 69.5412H174.36L190.293 65.176H152.514L135.253 69.5412ZM180.47 69.5412H220.016L234.621 65.176H196.404L180.47 69.5412ZM225.685 69.5412H265.677L278.955 65.176H240.29L225.685 69.5412ZM270.91 69.5412H311.326L323.276 65.176H284.188L270.91 69.5412ZM316.139 69.5412H356.977L367.599 65.176H328.089L316.139 69.5412ZM361.363 69.5412H402.615L411.91 65.176H371.986L361.363 69.5412ZM406.606 69.5412H448.248L456.215 65.176H415.901L406.606 69.5412ZM451.853 69.5412H493.865L500.504 65.176H459.82L451.853 69.5412ZM497.112 69.5412H539.471L544.782 65.176H503.751L497.112 69.5412ZM542.386 69.5412H585.052L589.035 65.176H547.697L542.386 69.5412ZM587.683 69.5412H630.604L633.259 65.176H591.666L587.683 69.5412ZM633.013 69.5412H676.118L677.446 65.176H635.669L633.013 69.5412ZM678.378 69.5412H721.578V65.176H679.706L678.378 69.5412ZM723.789 69.5412H766.994L765.666 65.176H723.789V69.5412ZM769.257 69.5412H812.362L809.706 65.176H767.929L769.257 69.5412ZM814.767 69.5412H857.689L853.705 65.176H812.112L814.767 69.5412ZM860.32 69.5412H902.989L897.678 65.176H856.336L860.32 69.5412ZM905.901 69.5412H948.26L941.621 65.176H900.589L905.901 69.5412ZM951.506 69.5412H993.522L985.555 65.176H944.867L951.506 69.5412ZM997.124 69.5412H1038.77L1029.47 65.176H989.157L997.124 69.5412ZM1042.76 69.5412H1084.01L1073.39 65.176H1033.47L1042.76 69.5412ZM1088.4 69.5412H1129.23L1117.28 65.176H1077.78L1088.4 69.5412ZM1134.05 69.5412H1174.46L1161.18 65.176H1122.1L1134.05 69.5412ZM1179.7 69.5412H1219.69L1205.08 65.176H1166.42L1179.7 69.5412ZM1225.36 69.5412H1264.91L1248.97 65.176H1210.75L1225.36 69.5412ZM1271.02 69.5412H1310.13L1292.87 65.176H1255.08L1271.02 69.5412ZM1316.68 69.5412H1355.33L1336.74 65.176H1299.42L1316.68 69.5412ZM1362.34 69.5412H1400.56L1380.64 65.176H1343.76L1362.34 69.5412ZM1408.01 69.5412H1445.76L1424.52 65.176H1388.09L1408.01 69.5412ZM-14.962 63.6175H20.5259L39.5654 59.7054H5.26717L-14.962 63.6175ZM28.4411 63.6175H64.3975L82.2471 59.7054H47.4803L28.4411 63.6175ZM71.8505 63.6175H108.257L124.917 59.7054H89.7001L71.8505 63.6175ZM115.267 63.6175H152.118L167.588 59.7054H131.927L115.267 63.6175ZM158.677 63.6175H195.982L210.262 59.7054H174.146L158.677 63.6175ZM202.093 63.6175H239.836L252.926 59.7054H216.373L202.093 63.6175ZM245.505 63.6175H283.695L295.595 59.7054H258.595L245.505 63.6175ZM288.929 63.6175H327.543L338.253 59.7054H300.829L288.929 63.6175ZM332.356 63.6175H371.392L380.912 59.7054H343.066L332.356 63.6175ZM375.778 63.6175H415.228L423.558 59.7054H385.298L375.778 63.6175ZM419.219 63.6175H459.059L466.199 59.7054H427.549L419.219 63.6175ZM462.664 63.6175H502.875L508.825 59.7054H469.804L462.664 63.6175ZM506.121 63.6175H546.678L551.438 59.7054H512.071L506.121 63.6175ZM549.593 63.6175H590.458L594.028 59.7054H554.353L549.593 63.6175ZM593.088 63.6175H634.207L636.587 59.7054H596.658L593.088 63.6175ZM636.617 63.6175H677.92L679.11 59.7054H638.997L636.617 63.6175ZM680.18 63.6175H721.578V59.7054H681.37L680.18 63.6175ZM723.789 63.6175H765.192L764.002 59.7054H723.789V63.6175ZM767.455 63.6175H808.758L806.378 59.7054H766.264L767.455 63.6175ZM811.164 63.6175H852.283L848.713 59.7054H808.784L811.164 63.6175ZM854.914 63.6175H895.782L891.022 59.7054H851.344L854.914 63.6175ZM898.693 63.6175H939.251L933.301 59.7054H893.933L898.693 63.6175ZM942.497 63.6175H982.711L975.571 59.7054H936.546L942.497 63.6175ZM986.313 63.6175H1026.15L1017.82 59.7054H979.173L986.313 63.6175ZM1030.15 63.6175H1069.59L1060.07 59.7054H1021.82L1030.15 63.6175ZM1073.98 63.6175H1113.02L1102.31 59.7054H1064.46L1073.98 63.6175ZM1117.83 63.6175H1156.44L1144.54 59.7054H1107.12L1117.83 63.6175ZM1161.68 63.6175H1199.87L1186.78 59.7054H1149.78L1161.68 63.6175ZM1205.54 63.6175H1243.29L1229 59.7054H1192.45L1205.54 63.6175ZM1249.39 63.6175H1286.7L1271.23 59.7054H1235.11L1249.39 63.6175ZM1293.25 63.6175H1330.11L1313.45 59.7054H1277.78L1293.25 63.6175ZM1337.12 63.6175H1373.53L1355.68 59.7054H1320.46L1337.12 63.6175ZM1380.98 63.6175H1416.94L1397.9 59.7054H1363.13L1380.98 63.6175ZM13.3446 58.1432H47.1683L64.2651 54.6303H31.5094L13.3446 58.1432ZM55.0829 58.1432H89.3745L105.403 54.6303H72.1794L55.0829 58.1432ZM96.8279 58.1432H131.57L146.529 54.6303H112.856L96.8279 58.1432ZM138.58 58.1432H173.766L187.657 54.6303H153.539L138.58 58.1432ZM180.323 58.1432H215.964L228.787 54.6303H194.215L180.323 58.1432ZM222.075 58.1432H258.153L269.907 54.6303H234.897L222.075 58.1432ZM263.822 58.1432H300.347L311.033 54.6303H275.576L263.822 58.1432ZM305.581 58.1432H342.529L352.146 54.6303H316.267L305.581 58.1432ZM347.343 58.1432H384.713L393.262 54.6303H356.96L347.343 58.1432ZM389.1 58.1432H426.884L434.364 54.6303H397.648L389.1 58.1432ZM430.875 58.1432H469.05L475.462 54.6303H438.356L430.875 58.1432ZM472.655 58.1432H511.201L516.543 54.6303H479.066L472.655 58.1432ZM514.447 58.1432H553.339L557.613 54.6303H519.79L514.447 58.1432ZM556.254 58.1432H595.453L598.659 54.6303H560.528L556.254 58.1432ZM598.084 58.1432H637.538L639.675 54.6303H601.289L598.084 58.1432ZM639.948 58.1432H679.585L680.654 54.6303H642.085L639.948 58.1432ZM681.845 58.1432H721.578V54.6303H682.913L681.845 58.1432ZM723.789 58.1432H763.527L762.459 54.6303H723.789V58.1432ZM765.789 58.1432H805.427L803.29 54.6303H764.721L765.789 58.1432ZM807.833 58.1432H847.287L844.082 54.6303H805.696L807.833 58.1432ZM849.919 58.1432H889.121L884.847 54.6303H846.713L849.919 58.1432ZM892.033 58.1432H930.925L925.582 54.6303H887.758L892.033 58.1432ZM934.17 58.1432H972.72L966.308 54.6303H928.828L934.17 58.1432ZM976.322 58.1432H1014.5L1007.02 54.6303H969.91L976.322 58.1432ZM1018.49 58.1432H1056.27L1047.72 54.6303H1011.01L1018.49 58.1432ZM1060.66 58.1432H1098.03L1088.41 54.6303H1052.11L1060.66 58.1432ZM1102.85 58.1432H1139.79L1129.1 54.6303H1093.23L1102.85 58.1432ZM1145.03 58.1432H1181.55L1169.8 54.6303H1134.34L1145.03 58.1432ZM1187.22 58.1432H1223.3L1210.48 54.6303H1175.47L1187.22 58.1432ZM1229.41 58.1432H1265.06L1251.17 54.6303H1216.59L1229.41 58.1432ZM1271.61 58.1432H1306.8L1291.84 54.6303H1257.72L1271.61 58.1432ZM1313.81 58.1432H1348.55L1332.52 54.6303H1298.85L1313.81 58.1432ZM1356 58.1432H1390.29L1373.2 54.6303H1339.98L1356 58.1432ZM1398.21 58.1432H1432.04L1413.88 54.6303H1381.11L1398.21 58.1432ZM-0.617529 53.0681H31.2139L47.5266 49.9134H16.6549L-0.617529 53.0681ZM39.5872 53.0681H71.8677L87.2211 49.9134H55.8995L39.5872 53.0681ZM79.782 53.0681H112.53L126.923 49.9134H95.1351L79.782 53.0681ZM119.984 53.0681H153.182L166.616 49.9134H134.377L119.984 53.0681ZM160.192 53.0681H193.835L206.31 49.9134H173.626L160.192 53.0681ZM200.392 53.0681H234.489L246.004 49.9134H212.866L200.392 53.0681ZM240.599 53.0681H275.134L285.689 49.9134H252.115L240.599 53.0681ZM280.803 53.0681H315.785L325.38 49.9134H291.359L280.803 53.0681ZM321.018 53.0681H356.423L365.059 49.9134H330.614L321.018 53.0681ZM361.236 53.0681H397.063L404.74 49.9134H369.873L361.236 53.0681ZM401.45 53.0681H437.691L444.408 49.9134H409.127L401.45 53.0681ZM441.682 53.0681H478.313L484.071 49.9134H448.399L441.682 53.0681ZM481.918 53.0681H518.919L523.717 49.9134H487.675L481.918 53.0681ZM522.166 53.0681H559.514L563.352 49.9134H526.964L522.166 53.0681ZM562.429 53.0681H600.084L602.963 49.9134H566.267L562.429 53.0681ZM602.715 53.0681H640.625L642.544 49.9134H605.594L602.715 53.0681ZM643.035 53.0681H681.129L682.088 49.9134H644.954L643.035 53.0681ZM683.389 53.0681H721.578V49.9134H684.348L683.389 53.0681ZM723.789 53.0681H761.983L761.024 49.9134H723.789V53.0681ZM764.246 53.0681H802.34L800.421 49.9134H763.286L764.246 53.0681ZM804.746 53.0681H842.656L839.777 49.9134H802.827L804.746 53.0681ZM845.287 53.0681H882.946L879.108 49.9134H842.408L845.287 53.0681ZM885.857 53.0681H923.206L918.408 49.9134H882.019L885.857 53.0681ZM926.452 53.0681H963.457L957.7 49.9134H921.654L926.452 53.0681ZM967.059 53.0681H1003.69L996.975 49.9134H961.302L967.059 53.0681ZM1007.68 53.0681H1043.92L1036.24 49.9134H1000.97L1007.68 53.0681ZM1048.31 53.0681H1084.14L1075.5 49.9134H1040.64L1048.31 53.0681ZM1088.95 53.0681H1124.35L1114.76 49.9134H1080.32L1088.95 53.0681ZM1129.59 53.0681H1164.57L1154.01 49.9134H1120L1129.59 53.0681ZM1170.24 53.0681H1204.78L1193.26 49.9134H1159.69L1170.24 53.0681ZM1210.89 53.0681H1244.99L1232.51 49.9134H1199.37L1210.89 53.0681ZM1251.54 53.0681H1285.18L1271.75 49.9134H1239.06L1251.54 53.0681ZM1292.19 53.0681H1325.39L1311 49.9134H1278.76L1292.19 53.0681ZM1332.85 53.0681H1365.59L1350.24 49.9134H1318.46L1332.85 53.0681ZM1373.51 53.0681H1405.8L1389.48 49.9134H1358.15L1373.51 53.0681ZM1414.16 53.0681H1445.99L1428.71 49.9134H1397.84L1414.16 53.0681ZM-13.5666 48.3512H16.3782L31.8915 45.5178H2.80935L-13.5666 48.3512ZM25.2077 48.3512H55.6046L70.2561 45.5178H40.721L25.2077 48.3512ZM63.9772 48.3512H94.8237L108.613 45.5178H78.628L63.9772 48.3512ZM102.738 48.3512H134.051L146.978 45.5178H116.527L102.738 48.3512ZM141.505 48.3512H173.269L185.335 45.5178H154.433L141.505 48.3512ZM180.278 48.3512H212.487L223.692 45.5178H192.344L180.278 48.3512ZM219.044 48.3512H251.706L262.049 45.5178H230.248L219.044 48.3512ZM257.817 48.3512H290.916L300.396 45.5178H268.159L257.817 48.3512ZM296.585 48.3512H330.132L338.751 45.5178H306.066L296.585 48.3512ZM335.366 48.3512H369.336L377.093 45.5178H343.984L335.366 48.3512ZM374.149 48.3512H408.541L415.436 45.5178H381.906L374.149 48.3512ZM412.928 48.3512H447.734L453.767 45.5178H419.823L412.928 48.3512ZM451.725 48.3512H486.922L492.093 45.5178H457.758L451.725 48.3512ZM490.526 48.3512H526.093L530.402 45.5178H495.698L490.526 48.3512ZM529.339 48.3512H565.253L568.701 45.5178H533.649L529.339 48.3512ZM568.168 48.3512H604.389L606.974 45.5178H571.615L568.168 48.3512ZM607.019 48.3512H643.495L645.219 45.5178H609.605L607.019 48.3512ZM645.905 48.3512H682.564L683.426 45.5178H647.628L645.905 48.3512ZM684.823 48.3512H721.578V45.5178H685.685L684.823 48.3512ZM723.789 48.3512H760.549L759.687 45.5178H723.789V48.3512ZM762.811 48.3512H799.47L797.747 45.5178H761.949L762.811 48.3512ZM801.876 48.3512H838.352L835.766 45.5178H800.153L801.876 48.3512ZM840.983 48.3512H877.207L873.759 45.5178H838.397L840.983 48.3512ZM880.118 48.3512H916.032L911.723 45.5178H876.671L880.118 48.3512ZM919.278 48.3512H954.849L949.677 45.5178H914.969L919.278 48.3512ZM958.451 48.3512H993.649L987.616 45.5178H953.279L958.451 48.3512ZM997.641 48.3512H1032.44L1025.55 45.5178H991.608L997.641 48.3512ZM1036.83 48.3512H1071.22L1063.47 45.5178H1029.94L1036.83 48.3512ZM1076.04 48.3512H1110.01L1101.39 45.5178H1068.28L1076.04 48.3512ZM1115.24 48.3512H1148.79L1139.31 45.5178H1106.63L1115.24 48.3512ZM1154.46 48.3512H1187.56L1177.22 45.5178H1144.98L1154.46 48.3512ZM1193.67 48.3512H1226.34L1215.13 45.5178H1183.33L1193.67 48.3512ZM1232.89 48.3512H1265.1L1253.03 45.5178H1221.68L1232.89 48.3512ZM1272.11 48.3512H1303.87L1290.95 45.5178H1260.04L1272.11 48.3512ZM1311.33 48.3512H1342.64L1328.85 45.5178H1298.4L1311.33 48.3512ZM1350.55 48.3512H1381.41L1366.75 45.5178H1336.76L1350.55 48.3512ZM1389.77 48.3512H1420.16L1404.65 45.5178H1375.12L1389.77 48.3512ZM1428.99 48.3512H1458.93L1442.55 45.5178H1413.48L1428.99 48.3512ZM11.838 43.9557H40.4446L54.3849 41.4095H26.5535L11.838 43.9557ZM49.2742 43.9557H78.3338L91.4999 41.4095H63.2145L49.2742 43.9557ZM86.7057 43.9557H116.216L128.608 41.4095H99.8714L86.7057 43.9557ZM124.13 43.9557H154.106L165.723 41.4095H136.521L124.13 43.9557ZM161.56 43.9557H191.987L202.83 41.4095H173.177L161.56 43.9557ZM198.996 43.9557H229.869L239.937 41.4095H209.839L198.996 43.9557ZM236.425 43.9557H267.75L277.044 41.4095H246.493L236.425 43.9557ZM273.861 43.9557H305.623L314.143 41.4095H283.155L273.861 43.9557ZM311.293 43.9557H343.503L351.248 41.4095H319.812L311.293 43.9557ZM348.736 43.9557H381.369L388.339 41.4095H356.481L348.736 43.9557ZM386.182 43.9557H419.238L425.434 41.4095H393.153L386.182 43.9557ZM423.624 43.9557H457.093L462.514 41.4095H429.82L423.624 43.9557ZM461.085 43.9557H494.944L499.591 41.4095H466.506L461.085 43.9557ZM498.549 43.9557H532.778L536.651 41.4095H503.196L498.549 43.9557ZM536.025 43.9557H570.601L573.699 41.4095H539.897L536.025 43.9557ZM573.516 43.9557H608.4L610.723 41.4095H576.614L573.516 43.9557ZM611.031 43.9557H646.169L647.718 41.4095H613.354L611.031 43.9557ZM648.579 43.9557H683.901L684.675 41.4095H650.128L648.579 43.9557ZM686.161 43.9557H721.578V41.4095H686.935L686.161 43.9557ZM723.789 43.9557H759.211L758.437 41.4095H723.789V43.9557ZM761.474 43.9557H796.796L795.247 41.4095H760.699L761.474 43.9557ZM799.202 43.9557H834.341L832.017 41.4095H797.653L799.202 43.9557ZM836.972 43.9557H871.859L868.761 41.4095H834.648L836.972 43.9557ZM874.77 43.9557H909.347L905.474 41.4095H871.672L874.77 43.9557ZM912.593 43.9557H946.826L942.179 41.4095H908.72L912.593 43.9557ZM950.428 43.9557H984.289L978.868 41.4095H945.781L950.428 43.9557ZM988.282 43.9557H1021.75L1015.55 41.4095H982.86L988.282 43.9557ZM1026.14 43.9557H1059.19L1052.22 41.4095H1019.94L1026.14 43.9557ZM1064.01 43.9557H1096.64L1088.89 41.4095H1057.04L1064.01 43.9557ZM1101.87 43.9557H1134.08L1125.56 41.4095H1094.13L1101.87 43.9557ZM1139.75 43.9557H1171.52L1162.22 41.4095H1131.23L1139.75 43.9557ZM1177.62 43.9557H1208.95L1198.89 41.4095H1168.33L1177.62 43.9557ZM1215.5 43.9557H1246.38L1235.54 41.4095H1205.44L1215.5 43.9557ZM1253.39 43.9557H1283.82L1272.2 41.4095H1242.54L1253.39 43.9557ZM1291.27 43.9557H1321.25L1308.85 41.4095H1279.65L1291.27 43.9557ZM1329.16 43.9557H1358.68L1345.51 41.4095H1316.77L1329.16 43.9557ZM1367.04 43.9557H1396.09L1382.15 41.4095H1353.87L1367.04 43.9557ZM1404.93 43.9557H1433.52L1418.81 41.4095H1390.99L1404.93 43.9557ZM-0.610596 39.851H26.2792L39.4508 37.572H13.2551L-0.610596 39.851ZM35.5614 39.851H62.9183L75.3963 37.572H48.733L35.5614 39.851ZM71.7478 39.851H99.5588L111.344 37.572H84.2255L71.7478 39.851ZM107.93 39.851H136.193L147.285 37.572H119.715L107.93 39.851ZM144.106 39.851H172.834L183.232 37.572H155.197L144.106 39.851ZM180.288 39.851H209.467L219.172 37.572H190.687L180.288 39.851ZM216.476 39.851H246.1L255.113 37.572H226.181L216.476 39.851ZM252.656 39.851H282.733L291.052 37.572H261.668L252.656 39.851ZM288.844 39.851H319.357L326.982 37.572H297.163L288.844 39.851ZM325.027 39.851H355.988L362.921 37.572H332.652L325.027 39.851ZM361.222 39.851H392.606L398.845 37.572H368.154L361.222 39.851ZM397.42 39.851H429.226L434.772 37.572H403.658L397.42 39.851ZM433.613 39.851H465.833L470.686 37.572H439.159L433.613 39.851ZM469.824 39.851H502.435L506.594 37.572H474.677L469.824 39.851ZM506.04 39.851H539.021L542.487 37.572H510.199L506.04 39.851ZM542.267 39.851H575.595L578.368 37.572H545.734L542.267 39.851ZM578.51 39.851H612.146L614.225 37.572H581.283L578.51 39.851ZM614.776 39.851H648.666L650.052 37.572H616.856L614.776 39.851ZM651.076 39.851H685.15L685.843 37.572H652.462L651.076 39.851ZM687.409 39.851H721.578V37.572H688.102L687.409 39.851ZM723.789 39.851H757.963L757.27 37.572H723.789V39.851ZM760.225 39.851H794.299L792.913 37.572H759.532L760.225 39.851ZM796.705 39.851H830.595L828.515 37.572H795.319L796.705 39.851ZM833.226 39.851H866.865L864.092 37.572H831.146L833.226 39.851ZM869.776 39.851H903.104L899.638 37.572H867.003L869.776 39.851ZM906.35 39.851H939.335L935.176 37.572H902.884L906.35 39.851ZM942.937 39.851H975.55L970.697 37.572H938.777L942.937 39.851ZM979.542 39.851H1011.76L1006.21 37.572H974.689L979.542 39.851ZM1016.15 39.851H1047.95L1041.71 37.572H1010.6L1016.15 39.851ZM1052.77 39.851H1084.15L1077.22 37.572H1046.53L1052.77 39.851ZM1089.39 39.851H1120.35L1112.72 37.572H1082.46L1089.39 39.851ZM1126.02 39.851H1156.53L1148.21 37.572H1118.39L1126.02 39.851ZM1162.64 39.851H1192.72L1183.71 37.572H1154.32L1162.64 39.851ZM1199.27 39.851H1228.9L1219.19 37.572H1190.26L1199.27 39.851ZM1235.91 39.851H1265.09L1254.69 37.572H1226.2L1235.91 39.851ZM1272.54 39.851H1301.27L1290.18 37.572H1262.15L1272.54 39.851ZM1309.18 39.851H1337.45L1325.67 37.572H1298.09L1309.18 39.851ZM1345.81 39.851H1373.62L1361.14 37.572H1334.03L1345.81 39.851ZM1382.45 39.851H1409.8L1396.63 37.572H1369.97L1382.45 39.851ZM1419.08 39.851H1445.97L1432.11 37.572H1405.91L1419.08 39.851ZM-12.2403 36.0098H13.0084L25.4531 33.9643H0.825665L-12.2403 36.0098ZM22.7592 36.0098H48.4794L60.3023 33.9643H35.2044L22.7592 36.0098ZM57.7616 36.0098H83.9491L95.149 33.9643H69.5842L57.7616 36.0098ZM92.7786 36.0098H119.421L129.999 33.9643H103.978L92.7786 36.0098ZM127.792 36.0098H154.887L164.843 33.9643H138.369L127.792 36.0098ZM162.8 36.0098H190.359L199.692 33.9643H172.755L162.8 36.0098ZM197.814 36.0098H225.824L234.536 33.9643H207.147L197.814 36.0098ZM232.833 36.0098H261.29L269.379 33.9643H241.544L232.833 36.0098ZM267.845 36.0098H296.754L304.22 33.9643H275.934L267.845 36.0098ZM302.865 36.0098H332.209L339.054 33.9643H310.331L302.865 36.0098ZM337.879 36.0098H367.672L373.894 33.9643H344.723L337.879 36.0098ZM372.906 36.0098H403.122L408.722 33.9643H379.128L372.906 36.0098ZM407.935 36.0098H438.573L443.551 33.9643H413.535L407.935 36.0098ZM442.96 36.0098H474.012L478.367 33.9643H447.938L442.96 36.0098ZM478.004 36.0098H509.445L513.179 33.9643H482.359L478.004 36.0098ZM513.05 36.0098H544.863L547.974 33.9643H516.784L513.05 36.0098ZM548.11 36.0098H580.269L582.758 33.9643H551.22L548.11 36.0098ZM583.184 36.0098H615.651L617.517 33.9643H585.673L583.184 36.0098ZM618.282 36.0098H651.003L652.247 33.9643H620.148L618.282 36.0098ZM653.412 36.0098H686.318L686.94 33.9643H654.657L653.412 36.0098ZM688.577 36.0098H721.578V33.9643H689.199L688.577 36.0098ZM723.789 36.0098H756.794L756.172 33.9643H723.789V36.0098ZM759.057 36.0098H791.962L790.718 33.9643H758.435L759.057 36.0098ZM794.368 36.0098H827.09L825.223 33.9643H793.124L794.368 36.0098ZM829.721 36.0098H862.191L859.702 33.9643H827.854L829.721 36.0098ZM865.102 36.0098H897.262L894.151 33.9643H862.613L865.102 36.0098ZM900.508 36.0098H932.324L928.591 33.9643H897.397L900.508 36.0098ZM935.926 36.0098H967.371L963.015 33.9643H932.193L935.926 36.0098ZM971.363 36.0098H1002.41L997.433 33.9643H967.007L971.363 36.0098ZM1006.8 36.0098H1037.44L1031.84 33.9643H1001.82L1006.8 36.0098ZM1042.25 36.0098H1072.47L1066.24 33.9643H1036.65L1042.25 36.0098ZM1077.7 36.0098H1107.49L1100.65 33.9643H1071.48L1077.7 36.0098ZM1113.17 36.0098H1142.51L1135.04 33.9643H1106.32L1113.17 36.0098ZM1148.62 36.0098H1177.53L1169.44 33.9643H1141.15L1148.62 36.0098ZM1184.08 36.0098H1212.54L1203.83 33.9643H1175.99L1184.08 36.0098ZM1219.55 36.0098H1247.56L1238.23 33.9643H1210.84L1219.55 36.0098ZM1255.02 36.0098H1282.57L1272.62 33.9643H1245.68L1255.02 36.0098ZM1290.49 36.0098H1317.59L1307.01 33.9643H1280.53L1290.49 36.0098ZM1325.95 36.0098H1352.59L1341.39 33.9643H1315.37L1325.95 36.0098ZM1361.42 36.0098H1387.6L1375.78 33.9643H1350.22L1361.42 36.0098ZM1396.88 36.0098H1422.6L1410.16 33.9643H1385.06L1396.88 36.0098ZM1432.35 36.0098H1457.62L1444.56 33.9643H1419.91L1432.35 36.0098ZM10.8042 32.4021H34.9568L46.0655 30.5761H22.4676L10.8042 32.4021ZM44.7085 32.4021H69.3309L79.8843 30.5761H55.8179L44.7085 32.4021ZM78.6128 32.4021H103.702L113.699 30.5761H89.1665L78.6128 32.4021ZM112.531 32.4021H138.077L147.519 30.5761H122.529L112.531 32.4021ZM146.447 32.4021H172.445L181.332 30.5761H155.889L146.447 32.4021ZM180.357 32.4021H206.82L215.151 30.5761H189.244L180.357 32.4021ZM214.275 32.4021H241.188L248.964 30.5761H222.607L214.275 32.4021ZM248.196 32.4021H275.557L282.777 30.5761H255.972L248.196 32.4021ZM282.111 32.4021H309.923L316.587 30.5761H289.332L282.111 32.4021ZM316.033 32.4021H344.281L350.39 30.5761H322.699L316.033 32.4021ZM349.95 32.4021H378.646L384.2 30.5761H356.06L349.95 32.4021ZM383.88 32.4021H412.998L417.997 30.5761H389.434L383.88 32.4021ZM417.812 32.4021H447.352L451.796 30.5761H422.811L417.812 32.4021ZM451.739 32.4021H481.694L485.582 30.5761H456.183L451.739 32.4021ZM485.685 32.4021H516.03L519.363 30.5761H489.573L485.685 32.4021ZM519.635 32.4021H550.35L553.127 30.5761H522.967L519.635 32.4021ZM553.596 32.4021H584.659L586.88 30.5761H556.373L553.596 32.4021ZM587.573 32.4021H618.943L620.609 30.5761H589.795L587.573 32.4021ZM621.574 32.4021H653.198L654.309 30.5761H623.24L621.574 32.4021ZM655.607 32.4021H687.415L687.971 30.5761H656.718L655.607 32.4021ZM689.675 32.4021H721.578V30.5761H690.23L689.675 32.4021ZM723.789 32.4021H755.697L755.142 30.5761H723.789V32.4021ZM757.96 32.4021H789.767L788.657 30.5761H757.404L757.96 32.4021ZM792.174 32.4021H823.797L822.131 30.5761H791.063L792.174 32.4021ZM826.429 32.4021H857.801L855.58 30.5761H824.762L826.429 32.4021ZM860.713 32.4021H891.775L888.998 30.5761H858.491L860.713 32.4021ZM895.021 32.4021H925.74L922.407 30.5761H892.244L895.021 32.4021ZM929.342 32.4021H959.689L955.801 30.5761H926.009L929.342 32.4021ZM963.681 32.4021H993.632L989.188 30.5761H959.793L963.681 32.4021ZM998.023 32.4021H1027.56L1022.56 30.5761H993.579L998.023 32.4021ZM1032.38 32.4021H1061.49L1055.94 30.5761H1027.38L1032.38 32.4021ZM1066.73 32.4021H1095.42L1089.31 30.5761H1061.18L1066.73 32.4021ZM1101.09 32.4021H1129.34L1122.68 30.5761H1094.99L1101.09 32.4021ZM1135.45 32.4021H1163.27L1156.05 30.5761H1128.79L1135.45 32.4021ZM1169.82 32.4021H1197.18L1189.4 30.5761H1162.6L1169.82 32.4021ZM1204.19 32.4021H1231.1L1222.77 30.5761H1196.41L1204.19 32.4021ZM1238.56 32.4021H1265.02L1256.13 30.5761H1230.23L1238.56 32.4021ZM1272.93 32.4021H1298.93L1289.49 30.5761H1264.04L1272.93 32.4021ZM1307.3 32.4021H1332.84L1322.84 30.5761H1297.85L1307.3 32.4021ZM1341.67 32.4021H1366.75L1356.2 30.5761H1331.67L1341.67 32.4021ZM1376.03 32.4021H1400.66L1389.55 30.5761H1365.48L1376.03 32.4021ZM1410.41 32.4021H1434.58L1422.92 30.5761H1399.3L1410.41 32.4021ZM32.4438 29.0143H55.5673L65.4828 27.3845H42.8542L32.4438 29.0143ZM65.32 29.0143H88.9113L98.3312 27.3845H75.2358L65.32 29.0143ZM98.1932 29.0143H122.251L131.174 27.3845H107.613L98.1932 29.0143ZM131.08 29.0143H155.595L164.023 27.3845H140.004L131.08 29.0143ZM163.965 29.0143H188.933L196.865 27.3845H172.392L163.965 29.0143ZM196.845 29.0143H222.277L229.713 27.3845H204.777L196.845 29.0143ZM229.732 29.0143H255.615L262.556 27.3845H237.169L229.732 29.0143ZM262.623 29.0143H288.954L295.399 27.3845H269.564L262.623 29.0143ZM295.507 29.0143H322.289L328.238 27.3845H301.952L295.507 29.0143ZM328.399 29.0143H355.616L361.069 27.3845H334.349L328.399 29.0143ZM361.286 29.0143H388.951L393.909 27.3845H366.739L361.286 29.0143ZM394.184 29.0143H422.273L426.735 27.3845H399.142L394.184 29.0143ZM427.086 29.0143H455.597L459.563 27.3845H431.548L427.086 29.0143ZM459.983 29.0143H488.907L492.377 27.3845H463.949L459.983 29.0143ZM492.899 29.0143H522.213L525.188 27.3845H496.369L492.899 29.0143ZM525.818 29.0143H555.503L557.981 27.3845H528.792L525.818 29.0143ZM558.749 29.0143H588.78L590.763 27.3845H561.228L558.749 29.0143ZM591.695 29.0143H622.034L623.522 27.3845H593.678L591.695 29.0143ZM624.665 29.0143H655.258L656.25 27.3845H626.153L624.665 29.0143ZM657.668 29.0143H688.446L688.942 27.3845H658.66L657.668 29.0143ZM690.705 29.0143H721.578V27.3845H691.201L690.705 29.0143ZM723.789 29.0143H754.666L754.171 27.3845H723.789V29.0143ZM756.929 29.0143H787.706L786.715 27.3845H756.433L756.929 29.0143ZM790.113 29.0143H820.706L819.219 27.3845H789.121L790.113 29.0143ZM823.337 29.0143H853.68L851.697 27.3845H821.85L823.337 29.0143ZM856.591 29.0143H886.622L884.144 27.3845H854.608L856.591 29.0143ZM889.868 29.0143H919.557L916.582 27.3845H887.39L889.868 29.0143ZM923.159 29.0143H952.475L949.005 27.3845H920.184L923.159 29.0143ZM956.468 29.0143H985.388L981.422 27.3845H952.997L956.468 29.0143ZM989.779 29.0143H1018.29L1013.82 27.3845H985.812L989.779 29.0143ZM1023.1 29.0143H1051.19L1046.23 27.3845H1018.64L1023.1 29.0143ZM1056.42 29.0143H1084.09L1078.63 27.3845H1051.47L1056.42 29.0143ZM1089.76 29.0143H1116.98L1111.03 27.3845H1084.31L1089.76 29.0143ZM1123.08 29.0143H1149.87L1143.42 27.3845H1117.14L1123.08 29.0143ZM1156.42 29.0143H1182.75L1175.81 27.3845H1149.97L1156.42 29.0143ZM1189.76 29.0143H1215.64L1208.21 27.3845H1182.82L1189.76 29.0143ZM1223.1 29.0143H1248.53L1240.6 27.3845H1215.66L1223.1 29.0143ZM1256.44 29.0143H1281.41L1272.99 27.3845H1248.51L1256.44 29.0143ZM1289.78 29.0143H1314.29L1305.37 27.3845H1281.35L1289.78 29.0143ZM1323.12 29.0143H1347.17L1337.75 27.3845H1314.2L1323.12 29.0143ZM1356.45 29.0143H1380.05L1370.13 27.3845H1347.03L1356.45 29.0143ZM1389.8 29.0143H1412.94L1402.53 27.3845H1379.88L1389.8 29.0143ZM1423.15 29.0143H1445.81L1434.91 27.3845H1412.74L1423.15 29.0143ZM-0.446499 29.0143H22.2282L32.6386 27.3845H10.4611L-0.446499 29.0143ZM52.8325 25.8223H74.9865L83.8111 24.3718H62.0981L52.8325 25.8223ZM84.7399 25.8223H107.36L115.744 24.3718H93.5651L84.7399 25.8223ZM116.642 25.8223H139.727L147.669 24.3718H125.025L116.642 25.8223ZM148.557 25.8223H172.101L179.602 24.3718H156.499L148.557 25.8223ZM180.47 25.8223H204.468L211.527 24.3718H187.971L180.47 25.8223ZM212.38 25.8223H236.84L243.459 24.3718H219.439L212.38 25.8223ZM244.296 25.8223H269.208L275.385 24.3718H250.915L244.296 25.8223ZM276.216 25.8223H301.576L307.312 24.3718H282.393L276.216 25.8223ZM308.129 25.8223H333.94L339.234 24.3718H313.865L308.129 25.8223ZM340.051 25.8223H366.296L371.15 24.3718H345.345L340.051 25.8223ZM371.966 25.8223H398.661L403.073 24.3718H376.819L371.966 25.8223ZM403.894 25.8223H431.011L434.982 24.3718H408.306L403.894 25.8223ZM435.825 25.8223H463.364L466.894 24.3718H439.796L435.825 25.8223ZM467.751 25.8223H495.704L498.792 24.3718H471.281L467.751 25.8223ZM499.695 25.8223H528.039L530.686 24.3718H502.784L499.695 25.8223ZM531.643 25.8223H560.357L562.564 24.3718H534.291L531.643 25.8223ZM563.604 25.8223H592.664L594.429 24.3718H565.81L563.604 25.8223ZM595.579 25.8223H624.947L626.271 24.3718H597.344L595.579 25.8223ZM627.578 25.8223H657.201L658.083 24.3718H628.902L627.578 25.8223ZM659.61 25.8223H689.417L689.858 24.3718H660.493L659.61 25.8223ZM691.676 25.8223H721.578V24.3718H692.117L691.676 25.8223ZM723.789 25.8223H753.696L753.254 24.3718H723.789V25.8223ZM755.958 25.8223H785.765L784.882 24.3718H755.517L755.958 25.8223ZM788.171 25.8223H817.793L816.47 24.3718H787.288L788.171 25.8223ZM820.424 25.8223H849.796L848.031 24.3718H819.1L820.424 25.8223ZM852.707 25.8223H881.768L879.562 24.3718H850.942L852.707 25.8223ZM885.014 25.8223H913.731L911.084 24.3718H882.808L885.014 25.8223ZM917.333 25.8223H945.679L942.59 24.3718H914.686L917.333 25.8223ZM949.671 25.8223H977.62L974.091 24.3718H946.582L949.671 25.8223ZM982.011 25.8223H1009.55L1005.58 24.3718H978.481L982.011 25.8223ZM1014.36 25.8223H1041.48L1037.07 24.3718H1010.39L1014.36 25.8223ZM1046.72 25.8223H1073.41L1068.55 24.3718H1042.3L1046.72 25.8223ZM1079.08 25.8223H1105.33L1100.03 24.3718H1074.23L1079.08 25.8223ZM1111.43 25.8223H1137.25L1131.51 24.3718H1106.14L1111.43 25.8223ZM1143.8 25.8223H1169.16L1162.98 24.3718H1138.06L1143.8 25.8223ZM1176.16 25.8223H1201.08L1194.46 24.3718H1169.99L1176.16 25.8223ZM1208.54 25.8223H1232.99L1225.93 24.3718H1201.92L1208.54 25.8223ZM1240.91 25.8223H1264.91L1257.41 24.3718H1233.85L1240.91 25.8223ZM1273.27 25.8223H1296.81L1288.87 24.3718H1265.77L1273.27 25.8223ZM1305.64 25.8223H1328.72L1320.34 24.3718H1297.7L1305.64 25.8223ZM1338 25.8223H1360.63L1351.8 24.3718H1329.62L1338 25.8223ZM1370.38 25.8223H1392.55L1383.28 24.3718H1361.56L1370.38 25.8223ZM1402.77 25.8223H1424.45L1414.74 24.3718H1393.5L1402.77 25.8223ZM20.9158 25.8223H42.6165L51.8819 24.3718H30.6236L20.9158 25.8223ZM72.0764 22.8096H93.3148L101.131 21.5248H80.2828L72.0764 22.8096ZM103.069 22.8096H124.772L132.198 21.5248H110.886L103.069 22.8096ZM134.054 22.8096H156.222L163.257 21.5248H141.479L134.054 22.8096ZM165.052 22.8096H187.679L194.323 21.5248H172.086L165.052 22.8096ZM196.048 22.8096H219.13L225.383 21.5248H202.691L196.048 22.8096ZM227.042 22.8096H250.586L256.448 21.5248H233.294L227.042 22.8096ZM258.043 22.8096H282.038L287.509 21.5248H263.905L258.043 22.8096ZM289.046 22.8096H313.489L318.57 21.5248H294.517L289.046 22.8096ZM320.042 22.8096H344.937L349.626 21.5248H325.123L320.042 22.8096ZM351.047 22.8096H376.376L380.675 21.5248H355.737L351.047 22.8096ZM382.046 22.8096H407.825L411.733 21.5248H386.345L382.046 22.8096ZM413.058 22.8096H439.259L442.776 21.5248H416.966L413.058 22.8096ZM444.072 22.8096H470.695L473.822 21.5248H447.59L444.072 22.8096ZM475.082 22.8096H502.119L504.854 21.5248H478.209L475.082 22.8096ZM506.11 22.8096H533.537L535.882 21.5248H508.846L506.11 22.8096ZM537.142 22.8096H564.94L566.893 21.5248H539.487L537.142 22.8096ZM568.185 22.8096H596.33L597.893 21.5248H570.14L568.185 22.8096ZM599.245 22.8096H627.696L628.869 21.5248H600.808L599.245 22.8096ZM630.327 22.8096H659.033L659.815 21.5248H631.5L630.327 22.8096ZM661.443 22.8096H690.333L690.724 21.5248H662.225L661.443 22.8096ZM692.593 22.8096H721.578V21.5248H692.983L692.593 22.8096ZM723.789 22.8096H752.779L752.388 21.5248H723.789V22.8096ZM755.042 22.8096H783.932L783.15 21.5248H754.651L755.042 22.8096ZM786.338 22.8096H815.044L813.871 21.5248H785.556L786.338 22.8096ZM817.675 22.8096H846.13L844.567 21.5248H816.503L817.675 22.8096ZM849.041 22.8096H877.186L875.232 21.5248H847.478L849.041 22.8096ZM880.432 22.8096H908.233L905.888 21.5248H878.478L880.432 22.8096ZM911.835 22.8096H939.264L936.528 21.5248H909.49L911.835 22.8096ZM943.256 22.8096H970.289L967.163 21.5248H940.52L943.256 22.8096ZM974.68 22.8096H1001.3L997.782 21.5248H971.553L974.68 22.8096ZM1006.12 22.8096H1032.31L1028.41 21.5248H1002.6L1006.12 22.8096ZM1037.55 22.8096H1063.33L1059.03 21.5248H1033.64L1037.55 22.8096ZM1069 22.8096H1094.33L1089.64 21.5248H1064.7L1069 22.8096ZM1100.44 22.8096H1125.33L1120.25 21.5248H1095.75L1100.44 22.8096ZM1131.88 22.8096H1156.33L1150.86 21.5248H1126.8L1131.88 22.8096ZM1163.34 22.8096H1187.33L1181.47 21.5248H1157.86L1163.34 22.8096ZM1194.79 22.8096H1218.33L1212.08 21.5248H1188.93L1194.79 22.8096ZM1226.24 22.8096H1249.33L1242.68 21.5248H1219.99L1226.24 22.8096ZM1257.69 22.8096H1280.32L1273.29 21.5248H1251.05L1257.69 22.8096ZM1289.15 22.8096H1311.31L1303.89 21.5248H1282.12L1289.15 22.8096ZM1320.59 22.8096H1342.3L1334.48 21.5248H1313.17L1320.59 22.8096ZM1352.05 22.8096H1373.3L1365.1 21.5248H1344.24L1352.05 22.8096ZM1383.52 22.8096H1404.29L1395.69 21.5248H1375.31L1383.52 22.8096ZM41.0779 22.8096H61.8598L70.0663 21.5248H49.6763L41.0779 22.8096ZM90.261 19.9627H110.635L117.505 18.8334H97.4744L90.261 19.9627ZM120.39 19.9627H141.226L147.753 18.8334H127.26L120.39 19.9627ZM150.508 19.9627H171.81L177.993 18.8334H157.035L150.508 19.9627ZM180.639 19.9627H202.401L208.24 18.8334H186.822L180.639 19.9627ZM210.769 19.9627H232.986L238.482 18.8334H216.608L210.769 19.9627ZM240.897 19.9627H263.575L268.728 18.8334H246.393L240.897 19.9627ZM271.032 19.9627H294.162L298.971 18.8334H276.184L271.032 19.9627ZM301.169 19.9627H324.748L329.213 18.8334H305.978L301.169 19.9627ZM331.3 19.9627H355.328L359.45 18.8334H335.766L331.3 19.9627ZM361.439 19.9627H385.902L389.681 18.8334H365.561L361.439 19.9627ZM391.572 19.9627H416.484L419.919 18.8334H395.35L391.572 19.9627ZM421.718 19.9627H447.053L450.144 18.8334H425.153L421.718 19.9627ZM451.866 19.9627H477.623L480.371 18.8334H454.958L451.866 19.9627ZM482.01 19.9627H508.181L510.585 18.8334H484.758L482.01 19.9627ZM512.172 19.9627H538.733L540.794 18.8334H514.577L512.172 19.9627ZM542.338 19.9627H569.269L570.987 18.8334H544.399L542.338 19.9627ZM572.515 19.9627H599.794L601.168 18.8334H574.233L572.515 19.9627ZM602.709 19.9627H630.294L631.325 18.8334H604.083L602.709 19.9627ZM632.925 19.9627H660.765L661.452 18.8334H633.956L632.925 19.9627ZM663.175 19.9627H691.199L691.543 18.8334H663.862L663.175 19.9627ZM693.458 19.9627H721.578V18.8334H693.802L693.458 19.9627ZM723.789 19.9627H751.913L751.57 18.8334H723.789V19.9627ZM754.176 19.9627H782.2L781.513 18.8334H753.832L754.176 19.9627ZM784.606 19.9627H812.446L811.416 18.8334H783.919L784.606 19.9627ZM815.077 19.9627H842.666L841.292 18.8334H814.046L815.077 19.9627ZM845.577 19.9627H872.856L871.138 18.8334H844.204L845.577 19.9627ZM876.102 19.9627H903.037L900.976 18.8334H874.384L876.102 19.9627ZM906.639 19.9627H933.202L930.798 18.8334H904.578L906.639 19.9627ZM937.194 19.9627H963.362L960.614 18.8334H934.79L937.194 19.9627ZM967.752 19.9627H993.506L990.414 18.8334H965.004L967.752 19.9627ZM998.322 19.9627H1023.65L1020.22 18.8334H995.231L998.322 19.9627ZM1028.89 19.9627H1053.8L1050.02 18.8334H1025.46L1028.89 19.9627ZM1059.47 19.9627H1083.94L1079.81 18.8334H1055.69L1059.47 19.9627ZM1090.04 19.9627H1114.08L1109.61 18.8334H1085.92L1090.04 19.9627ZM1120.63 19.9627H1144.2L1139.39 18.8334H1116.16L1120.63 19.9627ZM1151.21 19.9627H1174.34L1169.19 18.8334H1146.4L1151.21 19.9627ZM1181.8 19.9627H1204.48L1198.98 18.8334H1176.65L1181.8 19.9627ZM1212.39 19.9627H1234.61L1228.77 18.8334H1206.89L1212.39 19.9627ZM1242.97 19.9627H1264.73L1258.55 18.8334H1237.13L1242.97 19.9627ZM1273.56 19.9627H1294.86L1288.33 18.8334H1267.38L1273.56 19.9627ZM1304.14 19.9627H1324.98L1318.11 18.8334H1297.61L1304.14 19.9627ZM1334.73 19.9627H1355.12L1347.91 18.8334H1327.86L1334.73 19.9627ZM1365.34 19.9627H1385.24L1377.68 18.8334H1358.12L1365.34 19.9627ZM60.131 19.9627H80.0441L87.2571 18.8334H67.6887L60.131 19.9627ZM107.453 17.2712H127.008L133.035 16.2806H113.78L107.453 17.2712ZM136.765 17.2712H156.782L162.507 16.2806H142.792L136.765 17.2712ZM166.064 17.2712H186.546L191.969 16.2806H171.789L166.064 17.2712ZM195.375 17.2712H216.318L221.44 16.2806H200.799L195.375 17.2712ZM224.686 17.2712H246.084L250.905 16.2806H229.808L224.686 17.2712ZM253.995 17.2712H275.855L280.375 16.2806H258.816L253.995 17.2712ZM283.312 17.2712H305.623L309.841 16.2806H287.832L283.312 17.2712ZM312.631 17.2712H335.391L339.308 16.2806H316.849L312.631 17.2712ZM341.943 17.2712H365.152L368.768 16.2806H345.86L341.943 17.2712ZM371.263 17.2712H394.907L398.222 16.2806H374.879L371.263 17.2712ZM400.577 17.2712H424.671L427.684 16.2806H403.892L400.577 17.2712ZM429.904 17.2712H454.421L457.133 16.2806H432.918L429.904 17.2712ZM459.234 17.2712H484.173L486.583 16.2806H461.946L459.234 17.2712ZM488.559 17.2712H513.911L516.021 16.2806H490.97L488.559 17.2712ZM517.903 17.2712H543.645L545.453 16.2806H520.012L517.903 17.2712ZM547.25 17.2712H573.363L574.869 16.2806H549.058L547.25 17.2712ZM576.609 17.2712H603.068L604.274 16.2806H578.115L576.609 17.2712ZM605.983 17.2712H632.75L633.654 16.2806H607.189L605.983 17.2712ZM635.381 17.2712H662.402L663.005 16.2806H636.285L635.381 17.2712ZM664.812 17.2712H692.018L692.319 16.2806H665.415L664.812 17.2712ZM694.277 17.2712H721.578V16.2806H694.578L694.277 17.2712ZM723.789 17.2712H751.095L750.793 16.2806H723.789V17.2712ZM753.357 17.2712H780.562L779.96 16.2806H753.056L753.357 17.2712ZM782.969 17.2712H809.99L809.086 16.2806H782.366L782.969 17.2712ZM812.621 17.2712H839.392L838.186 16.2806H811.717L812.621 17.2712ZM842.303 17.2712H868.763L867.256 16.2806H841.098L842.303 17.2712ZM872.009 17.2712H898.125L896.317 16.2806H870.502L872.009 17.2712ZM901.727 17.2712H927.472L925.362 16.2806H899.919L901.727 17.2712ZM931.463 17.2712H956.812L954.402 16.2806H929.354L931.463 17.2712ZM961.202 17.2712H986.137L983.426 16.2806H958.792L961.202 17.2712ZM990.954 17.2712H1015.47L1012.45 16.2806H988.242L990.954 17.2712ZM1020.7 17.2712H1044.79L1041.48 16.2806H1017.69L1020.7 17.2712ZM1050.47 17.2712H1074.11L1070.5 16.2806H1047.15L1050.47 17.2712ZM1080.22 17.2712H1103.43L1099.52 16.2806H1076.6L1080.22 17.2712ZM1109.98 17.2712H1132.74L1128.52 16.2806H1106.07L1109.98 17.2712ZM1139.75 17.2712H1162.06L1157.54 16.2806H1135.53L1139.75 17.2712ZM1169.52 17.2712H1191.38L1186.56 16.2806H1165L1169.52 17.2712ZM1199.29 17.2712H1220.69L1215.57 16.2806H1194.47L1199.29 17.2712ZM1229.06 17.2712H1250L1244.57 16.2806H1223.93L1229.06 17.2712ZM1258.83 17.2712H1279.3L1273.58 16.2806H1253.4L1258.83 17.2712ZM1288.58 17.2712H1308.6L1302.58 16.2806H1282.86L1288.58 17.2712ZM1318.36 17.2712H1337.93L1331.6 16.2806H1312.33L1318.36 17.2712ZM1348.14 17.2712H1367.23L1360.6 16.2806H1341.82L1348.14 17.2712ZM78.143 17.2712H97.2353L103.562 16.2806H84.7726L78.143 17.2712ZM123.758 14.7185H142.539L147.784 13.8563H129.265L123.758 14.7185ZM152.296 14.7185H171.536L176.519 13.8563H157.541L152.296 14.7185ZM180.817 14.7185H200.523L205.243 13.8563H185.8L180.817 14.7185ZM209.352 14.7185H229.518L233.976 13.8563H214.072L209.352 14.7185ZM237.886 14.7185H258.508L262.704 13.8563H242.344L237.886 14.7185ZM266.419 14.7185H287.502L291.436 13.8563H270.615L266.419 14.7185ZM294.959 14.7185H316.494L320.165 13.8563H298.893L294.959 14.7185ZM323.501 14.7185H345.485L348.894 13.8563H327.173L323.501 14.7185ZM352.037 14.7185H374.47L377.617 13.8563H355.446L352.037 14.7185ZM380.581 14.7185H403.448L406.333 13.8563H383.728L380.581 14.7185ZM409.119 14.7185H432.436L435.058 13.8563H412.003L409.119 14.7185ZM437.669 14.7185H461.409L463.77 13.8563H440.292L437.669 14.7185ZM466.223 14.7185H490.385L492.483 13.8563H468.583L466.223 14.7185ZM494.771 14.7185H519.347L521.182 13.8563H496.869L494.771 14.7185ZM523.339 14.7185H548.304L549.878 13.8563H525.174L523.339 14.7185ZM551.909 14.7185H577.245L578.557 13.8563H553.482L551.909 14.7185ZM580.491 14.7185H606.174L607.223 13.8563H581.803L580.491 14.7185ZM609.089 14.7185H635.08L635.867 13.8563H610.138L609.089 14.7185ZM637.711 14.7185H663.956L664.48 13.8563H638.497L637.711 14.7185ZM666.365 14.7185H692.794L693.057 13.8563H666.89L666.365 14.7185ZM695.054 14.7185H721.578V13.8563H695.316L695.054 14.7185ZM723.789 14.7185H750.318L750.056 13.8563H723.789V14.7185ZM752.581 14.7185H779.01L778.485 13.8563H752.318L752.581 14.7185ZM781.416 14.7185H807.66L806.874 13.8563H780.891L781.416 14.7185ZM810.291 14.7185H836.286L835.237 13.8563H809.505L810.291 14.7185ZM839.197 14.7185H864.88L863.569 13.8563H838.148L839.197 14.7185ZM868.126 14.7185H893.466L891.892 13.8563H866.815L868.126 14.7185ZM897.068 14.7185H922.036L920.2 13.8563H895.494L897.068 14.7185ZM926.028 14.7185H950.6L948.502 13.8563H924.192L926.028 14.7185ZM954.99 14.7185H979.149L976.789 13.8563H952.892L954.99 14.7185ZM983.966 14.7185H1007.7L1005.08 13.8563H981.605L983.966 14.7185ZM1012.94 14.7185H1036.25L1033.37 13.8563H1010.32L1012.94 14.7185ZM1041.93 14.7185H1064.79L1061.65 13.8563H1039.04L1041.93 14.7185ZM1070.9 14.7185H1093.34L1089.93 13.8563H1067.76L1070.9 14.7185ZM1099.89 14.7185H1121.87L1118.2 13.8563H1096.48L1099.89 14.7185ZM1128.88 14.7185H1150.42L1146.48 13.8563H1125.21L1128.88 14.7185ZM1157.87 14.7185H1178.95L1174.76 13.8563H1153.94L1157.87 14.7185ZM1186.86 14.7185H1207.49L1203.03 13.8563H1182.67L1186.86 14.7185ZM1215.86 14.7185H1236.02L1231.3 13.8563H1211.4L1215.86 14.7185ZM1244.85 14.7185H1264.55L1259.57 13.8563H1240.13L1244.85 14.7185ZM1273.83 14.7185H1293.07L1287.83 13.8563H1268.85L1273.83 14.7185ZM1302.83 14.7185H1321.62L1316.11 13.8563H1297.59L1302.83 14.7185ZM1331.84 14.7185H1350.14L1344.37 13.8563H1326.33L1331.84 14.7185ZM95.2269 14.7185H113.541L119.047 13.8563H100.997L95.2269 14.7185ZM139.243 12.2942H157.287L161.793 11.5536H143.974L139.243 12.2942ZM167.045 12.2942H185.547L189.828 11.5536H171.551L167.045 12.2942ZM194.829 12.2942H213.796L217.851 11.5536H199.109L194.829 12.2942ZM222.625 12.2942H242.054L245.884 11.5536H226.68L222.625 12.2942ZM250.421 12.2942H270.307L273.911 11.5536H254.251L250.421 12.2942ZM278.217 12.2942H298.563L301.943 11.5536H281.822L278.217 12.2942ZM306.021 12.2942H326.818L329.972 11.5536H309.4L306.021 12.2942ZM333.825 12.2942H355.072L358.001 11.5536H336.979L333.825 12.2942ZM361.623 12.2942H383.319L386.023 11.5536H364.552L361.623 12.2942ZM389.431 12.2942H411.56L414.038 11.5536H392.134L389.431 12.2942ZM417.23 12.2942H439.81L442.063 11.5536H419.708L417.23 12.2942ZM445.044 12.2942H468.046L470.074 11.5536H447.296L445.044 12.2942ZM472.859 12.2942H496.284L498.086 11.5536H474.887L472.859 12.2942ZM500.671 12.2942H524.509L526.086 11.5536H502.473L500.671 12.2942ZM528.5 12.2942H552.729L554.08 11.5536H530.077L528.5 12.2942ZM556.334 12.2942H580.932L582.059 11.5536H557.685L556.334 12.2942ZM584.178 12.2942H609.124L610.025 11.5536H585.305L584.178 12.2942ZM612.039 12.2942H637.292L637.968 11.5536H612.94L612.039 12.2942ZM639.923 12.2942H665.43L665.881 11.5536H640.599L639.923 12.2942ZM667.84 12.2942H693.532L693.757 11.5536H668.291L667.84 12.2942ZM695.791 12.2942H721.578V11.5536H696.016L695.791 12.2942ZM723.789 12.2942H749.58L749.355 11.5536H723.789V12.2942ZM751.843 12.2942H777.535L777.084 11.5536H751.618L751.843 12.2942ZM779.941 12.2942H805.448L804.772 11.5536H779.49L779.941 12.2942ZM808.079 12.2942H833.336L832.435 11.5536H807.403L808.079 12.2942ZM836.247 12.2942H861.193L860.066 11.5536H835.346L836.247 12.2942ZM864.439 12.2942H889.041L887.69 11.5536H863.312L864.439 12.2942ZM892.643 12.2942H916.874L915.297 11.5536H891.291L892.643 12.2942ZM920.866 12.2942H944.701L942.898 11.5536H919.289L920.866 12.2942ZM949.091 12.2942H972.512L970.484 11.5536H947.289L949.091 12.2942ZM977.329 12.2942H1000.33L998.075 11.5536H975.301L977.329 12.2942ZM1005.56 12.2942H1028.14L1025.66 11.5536H1003.31L1005.56 12.2942ZM1033.81 12.2942H1055.94L1053.24 11.5536H1031.34L1033.81 12.2942ZM1062.05 12.2942H1083.75L1080.82 11.5536H1059.35L1062.05 12.2942ZM1090.3 12.2942H1111.55L1108.39 11.5536H1087.37L1090.3 12.2942ZM1118.55 12.2942H1139.36L1135.98 11.5536H1115.4L1118.55 12.2942ZM1146.81 12.2942H1167.15L1163.55 11.5536H1143.43L1146.81 12.2942ZM1175.07 12.2942H1194.95L1191.12 11.5536H1171.46L1175.07 12.2942ZM1203.32 12.2942H1222.75L1218.69 11.5536H1199.49L1203.32 12.2942ZM1231.58 12.2942H1250.54L1246.26 11.5536H1227.52L1231.58 12.2942ZM1259.82 12.2942H1278.33L1273.82 11.5536H1255.54L1259.82 12.2942ZM1288.08 12.2942H1306.13L1301.4 11.5536H1283.58L1288.08 12.2942ZM1316.35 12.2942H1333.92L1328.96 11.5536H1311.62L1316.35 12.2942ZM111.451 12.2942H129.026L133.756 11.5536H116.408L111.451 12.2942ZM153.952 9.9914H171.297L175.122 9.36271H157.968L153.952 9.9914ZM181.055 9.9914H198.857L202.49 9.36271H184.88L181.055 9.9914ZM208.138 9.9914H226.404L229.846 9.36271H211.772L208.138 9.9914ZM235.233 9.9914H253.962L257.213 9.36271H238.675L235.233 9.9914ZM262.329 9.9914H281.514L284.574 9.36271H265.579L262.329 9.9914ZM289.424 9.9914H309.07L311.938 9.36271H292.484L289.424 9.9914ZM316.527 9.9914H336.624L339.302 9.36271H319.396L316.527 9.9914ZM343.631 9.9914H364.178L366.664 9.36271H346.308L343.631 9.9914ZM370.729 9.9914H391.725L394.019 9.36271H373.215L370.729 9.9914ZM397.836 9.9914H419.265L421.369 9.36271H400.131L397.836 9.9914ZM424.935 9.9914H446.815L448.727 9.36271H427.039L424.935 9.9914ZM452.048 9.9914H474.35L476.071 9.36271H453.961L452.048 9.9914ZM479.163 9.9914H501.888L503.418 9.36271H480.885L479.163 9.9914ZM506.274 9.9914H529.412L530.751 9.36271H507.804L506.274 9.9914ZM533.404 9.9914H556.931L558.079 9.36271H534.742L533.404 9.9914ZM560.536 9.9914H584.435L585.391 9.36271H561.684L560.536 9.9914ZM587.681 9.9914H611.926L612.691 9.36271H588.637L587.681 9.9914ZM614.841 9.9914H639.394L639.967 9.36271H615.606L614.841 9.9914ZM642.024 9.9914H666.831L667.214 9.36271H642.598L642.024 9.9914ZM669.241 9.9914H694.232L694.423 9.36271H669.624L669.241 9.9914ZM696.491 9.9914H721.578V9.36271H696.683L696.491 9.9914ZM723.789 9.9914H748.88L748.689 9.36271H723.789V9.9914ZM751.143 9.9914H776.134L775.751 9.36271H750.951L751.143 9.9914ZM778.54 9.9914H803.347L802.773 9.36271H778.157L778.54 9.9914ZM805.978 9.9914H830.534L829.769 9.36271H805.404L805.978 9.9914ZM833.445 9.9914H857.69L856.734 9.36271H832.68L833.445 9.9914ZM860.936 9.9914H884.838L883.691 9.36271H859.98L860.936 9.9914ZM888.44 9.9914H911.971L910.632 9.36271H887.293L888.44 9.9914ZM915.963 9.9914H939.097L937.567 9.36271H914.624L915.963 9.9914ZM943.487 9.9914H966.208L964.487 9.36271H941.957L943.487 9.9914ZM971.025 9.9914H993.323L991.411 9.36271H969.303L971.025 9.9914ZM998.56 9.9914H1020.44L1018.33 9.36271H996.648L998.56 9.9914ZM1026.11 9.9914H1047.54L1045.24 9.36271H1024.01L1026.11 9.9914ZM1053.65 9.9914H1074.65L1072.16 9.36271H1051.35L1053.65 9.9914ZM1081.2 9.9914H1101.74L1099.06 9.36271H1078.71L1081.2 9.9914ZM1108.75 9.9914H1128.85L1125.98 9.36271H1106.07L1108.75 9.9914ZM1136.31 9.9914H1155.95L1152.89 9.36271H1133.44L1136.31 9.9914ZM1163.86 9.9914H1183.04L1179.79 9.36271H1160.8L1163.86 9.9914ZM1191.41 9.9914H1210.14L1206.7 9.36271H1188.16L1191.41 9.9914ZM1218.97 9.9914H1237.23L1233.6 9.36271H1215.53L1218.97 9.9914ZM1246.51 9.9914H1264.32L1260.49 9.36271H1242.88L1246.51 9.9914ZM1274.07 9.9914H1291.42L1287.41 9.36271H1270.25L1274.07 9.9914ZM1301.64 9.9914H1318.51L1314.3 9.36271H1297.63L1301.64 9.9914ZM126.863 9.9914H143.734L147.75 9.36271H131.07L126.863 9.9914ZM167.947 7.80055H184.626L187.836 7.27289H171.317L167.947 7.80055ZM194.384 7.80055H211.519L214.569 7.27289H197.595L194.384 7.80055ZM220.801 7.80055H238.399L241.288 7.27289H223.85L220.801 7.80055ZM247.228 7.80055H265.291L268.019 7.27289H250.117L247.228 7.80055ZM273.657 7.80055H292.176L294.744 7.27289H276.385L273.657 7.80055ZM300.087 7.80055H319.066L321.473 7.27289H302.654L300.087 7.80055ZM326.523 7.80055H345.954L348.201 7.27289H328.931L326.523 7.80055ZM352.961 7.80055H372.842L374.928 7.27289H355.208L352.961 7.80055ZM379.393 7.80055H399.721L401.648 7.27289H381.479L379.393 7.80055ZM405.833 7.80055H426.595L428.361 7.27289H407.759L405.833 7.80055ZM432.266 7.80055H453.479L455.084 7.27289H434.031L432.266 7.80055ZM458.712 7.80055H480.348L481.793 7.27289H460.317L458.712 7.80055ZM485.161 7.80055H507.219L508.503 7.27289H486.606L485.161 7.80055ZM511.606 7.80055H534.077L535.2 7.27289H512.89L511.606 7.80055ZM538.069 7.80055H560.93L561.893 7.27289H539.192L538.069 7.80055ZM564.535 7.80055H587.767L588.569 7.27289H565.498L564.535 7.80055ZM591.013 7.80055H614.592L615.234 7.27289H591.815L591.013 7.80055ZM617.506 7.80055H641.393L641.874 7.27289H618.148L617.506 7.80055ZM644.024 7.80055H668.164L668.485 7.27289H644.505L644.024 7.80055ZM670.574 7.80055H694.899L695.059 7.27289H670.895L670.574 7.80055ZM697.158 7.80055H721.578V7.27289H697.318L697.158 7.80055ZM723.789 7.80055H748.214L748.053 7.27289H723.789V7.80055ZM750.476 7.80055H774.801L774.48 7.27289H750.316L750.476 7.80055ZM777.207 7.80055H801.348L800.866 7.27289H776.886L777.207 7.80055ZM803.978 7.80055H827.868L827.226 7.27289H803.497L803.978 7.80055ZM830.78 7.80055H854.358L853.556 7.27289H830.137L830.78 7.80055ZM857.604 7.80055H880.84L879.877 7.27289H856.802L857.604 7.80055ZM884.442 7.80055H907.306L906.183 7.27289H883.479L884.442 7.80055ZM911.298 7.80055H933.766L932.482 7.27289H910.174L911.298 7.80055ZM938.156 7.80055H960.21L958.766 7.27289H936.872L938.156 7.80055ZM965.027 7.80055H986.659L985.054 7.27289H963.582L965.027 7.80055ZM991.896 7.80055H1013.11L1011.34 7.27289H990.291L991.896 7.80055ZM1018.78 7.80055H1039.54L1037.62 7.27289H1017.01L1018.78 7.80055ZM1045.65 7.80055H1065.98L1063.9 7.27289H1043.72L1045.65 7.80055ZM1072.53 7.80055H1092.41L1090.16 7.27289H1070.45L1072.53 7.80055ZM1099.42 7.80055H1118.85L1116.44 7.27289H1097.17L1099.42 7.80055ZM1126.31 7.80055H1145.29L1142.72 7.27289H1123.9L1126.31 7.80055ZM1153.2 7.80055H1171.72L1168.99 7.27289H1150.63L1153.2 7.80055ZM1180.08 7.80055H1198.15L1195.26 7.27289H1177.35L1180.08 7.80055ZM1206.97 7.80055H1224.57L1221.52 7.27289H1204.09L1206.97 7.80055ZM1233.85 7.80055H1250.99L1247.78 7.27289H1230.8L1233.85 7.80055ZM1260.75 7.80055H1277.43L1274.06 7.27289H1257.54L1260.75 7.80055ZM1287.65 7.80055H1303.85L1300.32 7.27289H1284.28L1287.65 7.80055ZM141.525 7.80055H157.728L161.098 7.27289H145.056L141.525 7.80055ZM181.295 5.71074H197.339L199.951 5.28148H184.037L181.295 5.71074ZM207.099 5.71074H223.597L226.078 5.28148H209.71L207.099 5.71074ZM232.879 5.71074H249.841L252.192 5.28148H235.36L232.879 5.71074ZM258.67 5.71074H276.097L278.317 5.28148H261.02L258.67 5.71074ZM284.463 5.71074H302.347L304.436 5.28148H286.683L284.463 5.71074ZM310.257 5.71074H328.601L330.559 5.28148H312.346L310.257 5.71074ZM336.059 5.71074H354.853L356.682 5.28148H338.017L336.059 5.71074ZM361.86 5.71074H381.106L382.803 5.28148H363.688L361.86 5.71074ZM387.656 5.71074H407.35L408.917 5.28148H389.354L387.656 5.71074ZM413.461 5.71074H433.588L435.024 5.28148H415.028L413.461 5.71074ZM439.258 5.71074H459.836L461.142 5.28148H440.694L439.258 5.71074ZM465.069 5.71074H486.069L487.244 5.28148H466.375L465.069 5.71074ZM490.882 5.71074H512.304L513.349 5.28148H492.057L490.882 5.71074ZM516.691 5.71074H538.527L539.44 5.28148H517.736L516.691 5.71074ZM542.518 5.71074H564.744L565.527 5.28148H543.433L542.518 5.71074ZM568.349 5.71074H590.945L591.598 5.28148H569.132L568.349 5.71074ZM594.191 5.71074H617.135L617.657 5.28148H594.844L594.191 5.71074ZM620.049 5.71074H643.3L643.691 5.28148H620.571L620.049 5.71074ZM645.931 5.71074H669.435L669.697 5.28148H646.322L645.931 5.71074ZM671.845 5.71074H695.534L695.665 5.28148H672.107L671.845 5.71074ZM697.794 5.71074H721.578V5.28148H697.924L697.794 5.71074ZM723.789 5.71074H747.578L747.448 5.28148H723.789V5.71074ZM749.841 5.71074H773.529L773.268 5.28148H749.71L749.841 5.71074ZM775.936 5.71074H799.44L799.049 5.28148H775.674L775.936 5.71074ZM802.071 5.71074H825.326L824.803 5.28148H801.68L802.071 5.71074ZM828.237 5.71074H851.18L850.527 5.28148H827.715L828.237 5.71074ZM854.426 5.71074H877.026L876.242 5.28148H853.773L854.426 5.71074ZM880.628 5.71074H902.856L901.942 5.28148H879.844L880.628 5.71074ZM906.848 5.71074H928.68L927.636 5.28148H905.934L906.848 5.71074ZM933.07 5.71074H954.489L953.314 5.28148H932.026L933.07 5.71074ZM959.306 5.71074H980.302L978.997 5.28148H958.131L959.306 5.71074ZM985.539 5.71074H1006.11L1004.68 5.28148H984.234L985.539 5.71074ZM1011.79 5.71074H1031.91L1030.35 5.28148H1010.35L1011.79 5.71074ZM1038.02 5.71074H1057.72L1056.02 5.28148H1036.45L1038.02 5.71074ZM1064.27 5.71074H1083.51L1081.68 5.28148H1062.57L1064.27 5.71074ZM1090.52 5.71074H1109.32L1107.36 5.28148H1088.69L1090.52 5.71074ZM1116.77 5.71074H1135.11L1133.03 5.28148H1114.82L1116.77 5.71074ZM1143.02 5.71074H1160.91L1158.69 5.28148H1140.94L1143.02 5.71074ZM1169.28 5.71074H1186.7L1184.35 5.28148H1167.06L1169.28 5.71074ZM1195.53 5.71074H1212.49L1210.01 5.28148H1193.18L1195.53 5.71074ZM1221.77 5.71074H1238.27L1235.66 5.28148H1219.29L1221.77 5.71074ZM1248.03 5.71074H1264.08L1261.34 5.28148H1245.42L1248.03 5.71074ZM1274.3 5.71074H1289.86L1286.99 5.28148H1271.56L1274.3 5.71074ZM155.51 5.71074H171.076L173.818 5.28148H158.383L155.51 5.71074ZM194.015 3.71933H209.454L211.511 3.38121H196.175L194.015 3.71933ZM219.214 3.71933H235.107L237.061 3.38121H221.271L219.214 3.71933ZM244.388 3.71933H260.744L262.596 3.38121H246.342L244.388 3.71933ZM269.574 3.71933H286.395L288.143 3.38121H271.425L269.574 3.71933ZM294.76 3.71933H312.039L313.684 3.38121H296.509L294.76 3.71933ZM319.949 3.71933H337.687L339.229 3.38121H321.594L319.949 3.71933ZM345.145 3.71933H363.334L364.774 3.38121H346.687L345.145 3.71933ZM370.341 3.71933H388.981L390.318 3.38121H371.78L370.341 3.71933ZM395.531 3.71933H414.619L415.853 3.38121H396.868L395.531 3.71933ZM420.73 3.71933H440.251L441.382 3.38121H421.964L420.73 3.71933ZM445.921 3.71933H465.893L466.922 3.38121H447.053L445.921 3.71933ZM471.126 3.71933H491.521L492.446 3.38121H472.155L471.126 3.71933ZM496.334 3.71933H517.15L517.973 3.38121H497.26L496.334 3.71933ZM521.537 3.71933H542.767L543.487 3.38121H522.36L521.537 3.71933ZM546.759 3.71933H568.378L568.995 3.38121H547.479L546.759 3.71933ZM571.983 3.71933H593.974L594.488 3.38121H572.601L571.983 3.71933ZM597.22 3.71933H619.557L619.969 3.38121H597.734L597.22 3.71933ZM622.472 3.71933H645.117L645.426 3.38121H622.884L622.472 3.71933ZM647.748 3.71933H670.647L670.853 3.38121H648.056L647.748 3.71933ZM673.057 3.71933H696.14L696.243 3.38121H673.263L673.057 3.71933ZM698.399 3.71933H721.578V3.38121H698.502L698.399 3.71933ZM723.789 3.71933H746.972L746.869 3.38121H723.789V3.71933ZM749.235 3.71933H772.318L772.112 3.38121H749.132L749.235 3.71933ZM774.724 3.71933H797.623L797.315 3.38121H774.519L774.724 3.71933ZM800.254 3.71933H822.903L822.491 3.38121H799.946L800.254 3.71933ZM825.814 3.71933H848.151L847.637 3.38121H825.402L825.814 3.71933ZM851.397 3.71933H873.391L872.774 3.38121H850.883L851.397 3.71933ZM876.993 3.71933H898.616L897.896 3.38121H876.376L876.993 3.71933ZM902.608 3.71933H923.834L923.012 3.38121H901.888L902.608 3.71933ZM928.224 3.71933H949.037L948.111 3.38121H927.402L928.224 3.71933ZM953.854 3.71933H974.245L973.217 3.38121H952.928L953.854 3.71933ZM979.482 3.71933H999.45L998.319 3.38121H978.453L979.482 3.71933ZM1005.12 3.71933H1024.64L1023.41 3.38121H1003.99L1005.12 3.71933ZM1030.75 3.71933H1049.84L1048.51 3.38121H1029.52L1030.75 3.71933ZM1056.39 3.71933H1075.03L1073.59 3.38121H1055.06L1056.39 3.71933ZM1082.04 3.71933H1100.23L1098.69 3.38121H1080.6L1082.04 3.71933ZM1107.69 3.71933H1125.42L1123.78 3.38121H1106.15L1107.69 3.71933ZM1133.33 3.71933H1150.61L1148.86 3.38121H1131.69L1133.33 3.71933ZM1158.98 3.71933H1175.8L1173.95 3.38121H1157.23L1158.98 3.71933ZM1184.63 3.71933H1200.98L1199.03 3.38121H1182.78L1184.63 3.71933ZM1210.26 3.71933H1226.16L1224.1 3.38121H1208.31L1210.26 3.71933ZM1235.92 3.71933H1251.36L1249.2 3.38121H1233.86L1235.92 3.71933ZM1261.58 3.71933H1276.53L1274.27 3.38121H1259.42L1261.58 3.71933ZM168.838 3.71933H183.796L185.956 3.38121H171.101L168.838 3.71933ZM207.799 1.56117L206.153 1.81905H221.015L222.585 1.56084L207.799 1.56117ZM232.347 1.56051L230.775 1.81905H246.09L247.586 1.56018L232.347 1.56051ZM256.868 1.55985L255.371 1.81905H271.149L272.569 1.55952L256.868 1.55985ZM281.4 1.55919L279.978 1.81905H296.221L297.566 1.55885L281.4 1.55919ZM305.932 1.55852L304.586 1.81905H321.287L322.556 1.55819L305.932 1.55852ZM330.467 1.55786L329.197 1.81905H346.357L347.548 1.55753L330.467 1.55786ZM355.007 1.55753L353.815 1.81905H371.426L372.54 1.5572L355.007 1.55753ZM379.547 1.5572L378.433 1.81905H396.495L397.531 1.55687L379.547 1.5572ZM404.081 1.55687L403.045 1.81905H421.555L422.512 1.55654L404.081 1.55687ZM428.624 1.55654L427.666 1.81905H446.609L447.488 1.55621L428.624 1.55654ZM453.158 1.55621L452.279 1.81905H471.673L472.473 1.55588L453.158 1.55621ZM477.707 1.55588L476.907 1.81905H496.723L497.444 1.55555L477.707 1.55588ZM502.257 1.55555L501.536 1.81905H521.775L522.416 1.55522L502.257 1.55555ZM526.803 1.55522L526.161 1.81905H546.813L547.375 1.55489L526.803 1.55522ZM551.367 1.55489L550.805 1.81905H571.846L572.329 1.55456L551.367 1.55489ZM575.934 1.55456L575.452 1.81905H596.864L597.266 1.55423L575.934 1.55456ZM600.513 1.55423L600.11 1.81905H621.87L622.192 1.5539L600.513 1.55423ZM625.107 1.5539L624.784 1.81905H646.851L647.093 1.55357L625.107 1.5539ZM649.724 1.55357L649.482 1.81905H671.803L671.965 1.55324L649.724 1.55357ZM674.374 1.55324L674.213 1.81905H696.718L696.799 1.55291L674.374 1.55324ZM699.058 1.55291L698.977 1.81905H721.578V1.55258L699.058 1.55291ZM723.789 1.55258V1.81905H746.394L746.313 1.55225L723.789 1.55258ZM748.576 1.55225L748.657 1.81905H771.162L770.999 1.55192L748.576 1.55225ZM773.406 1.55192L773.568 1.81905H795.889L795.645 1.55159L773.406 1.55192ZM798.276 1.55159L798.52 1.81905H820.59L820.265 1.55126L798.276 1.55159ZM823.176 1.55126L823.502 1.81905H845.261L844.853 1.55093L823.176 1.55126ZM848.099 1.55093L848.507 1.81905H869.923L869.433 1.5506L848.099 1.55093ZM873.035 1.5506L873.525 1.81905H894.57L893.997 1.55027L873.035 1.5506ZM897.989 1.55027L898.562 1.81905H919.21L918.555 1.54994L897.989 1.55027ZM922.945 1.54994L923.6 1.81905H943.835L943.097 1.54961L922.945 1.54994ZM948.652 1.81905H968.465L967.644 1.54928H947.914L948.652 1.81905ZM973.701 1.81905H993.092L992.188 1.54895H972.88L973.701 1.81905ZM998.766 1.81905H1017.71L1016.72 1.54862H997.862L998.766 1.81905ZM1023.82 1.81905H1042.33L1041.26 1.54829H1022.83L1023.82 1.81905ZM1048.88 1.81905H1066.94L1065.78 1.54796H1047.81L1048.88 1.81905ZM1073.95 1.81905H1091.56L1090.32 1.54763H1072.79L1073.95 1.81905ZM1099.02 1.81905H1116.17L1114.85 1.5473H1097.78L1099.02 1.81905ZM1124.08 1.81905H1140.78L1139.38 1.54697H1122.76L1124.08 1.81905ZM1149.15 1.81905H1165.4L1163.91 1.54664H1147.75L1149.15 1.81905ZM1174.23 1.81905H1190L1188.42 1.54631H1172.73L1174.23 1.81905ZM1199.28 1.81905H1214.6L1212.94 1.54598H1197.7L1199.28 1.81905ZM1224.36 1.81905H1239.22L1237.47 1.54565H1222.7L1224.36 1.81905ZM1249.44 1.81905H1263.82L1261.99 1.54532H1247.69L1249.44 1.81905ZM183.275 1.56216L181.555 1.81905H195.934L197.577 1.5615L183.275 1.56216Z" fill="url(#paint0_linear_184_530)"/>
<defs>
<linearGradient id="paint0_linear_184_530" x1="720.5" y1="0" x2="720.5" y2="497" gradientUnits="userSpaceOnUse">
<stop stop-color="#FFD0B0" stop-opacity="0"/>
<stop offset="1" stop-color="#FFD0B0"/>
</linearGradient>
</defs>
</svg>