<svg width="128" height="64" viewBox="0 0 128 64" fill="none" xmlns="http://www.w3.org/2000/svg">
<path d="M60.3525 21.3477C60.5412 21.3477 60.7301 21.3437 60.9189 21.3398C61.3343 21.3315 61.7498 21.3233 62.1621 21.3555C63.4487 21.4554 64.6279 21.8954 65.7441 22.5459C67.3736 23.4947 68.5134 24.8682 69.2705 26.5752C69.9533 28.1121 70.1103 29.7315 69.916 31.3926C69.7921 32.4484 69.5007 33.4537 69.0029 34.3955C68.4302 35.4792 67.6337 36.3709 66.6709 37.1143C66.481 37.2607 66.2764 37.3896 66.0723 37.5176C65.9761 37.5779 65.8798 37.638 65.7852 37.7002C65.3487 37.9883 64.8674 38.1823 64.3857 38.377L64.3701 38.3838C63.8021 38.6141 63.2073 38.7166 62.6094 38.8193C62.5042 38.8374 62.3982 38.8552 62.293 38.874C61.3042 39.0504 60.3112 39.0035 59.3271 38.957C59.2967 38.9556 59.2658 38.9546 59.2354 38.9531C58.0316 38.8969 56.8506 38.6543 55.7451 38.1045C54.7637 37.6164 53.8919 36.9935 53.1543 36.1885C52.4042 35.3693 51.8187 34.4334 51.4277 33.3916C51.1716 32.7092 51.0485 31.9889 50.9248 31.2686C50.9155 31.2142 50.9059 31.1598 50.8965 31.1055C50.7842 30.4557 50.7846 29.8166 50.8496 29.1738C51.0044 27.6345 51.4954 26.2107 52.3818 24.9385C53.2798 23.6484 54.4348 22.6666 55.8848 22.0488C56.9414 21.599 58.0345 21.32 59.1895 21.3262H60.3525V21.3477ZM86.5195 21.3291C88.7852 21.341 90.5603 22.3535 91.8662 24.1846C92.5064 25.081 92.8387 26.1153 92.9277 27.2188C92.9548 27.5552 92.9658 27.8944 92.9658 28.2324C92.9681 31.5351 92.9652 34.8389 92.9668 38.1416C92.9668 38.3775 92.9851 38.6138 92.999 38.8496C93.0052 38.9477 92.9917 38.9976 92.8682 38.9961C91.8711 38.9828 90.873 38.9779 89.876 38.9717C89.6166 38.9701 89.3562 38.9717 89.0977 38.9717C89.0977 36.8662 89.0992 34.7658 89.0977 32.665C89.0961 30.4808 89.0916 28.2965 89.0908 26.1123C89.09 25.6984 89.1049 25.2838 89.1025 24.8691C89.1025 24.8238 89.0363 24.7471 88.9922 24.7393C88.8553 24.7159 88.7135 24.7129 88.5742 24.7129C85.6256 24.7129 82.6771 24.7133 79.7285 24.7148C79.4839 24.7148 79.4983 24.7171 79.5029 24.96C79.5169 25.6175 79.5213 26.2761 79.5205 26.9336C79.5166 30.8047 79.5113 34.6758 79.5059 38.5469V38.9746H75.625V21.3271H75.8809C79.4272 21.3264 82.9732 21.3104 86.5195 21.3291ZM5.91504 15.0234C6.05903 15.0086 6.10156 15.0424 6.10156 15.1924C6.09614 17.1344 6.09745 19.0765 6.09668 21.0186C6.09591 21.3246 6.09572 21.3252 6.4043 21.3252C8.5331 21.3252 10.6622 21.3279 12.791 21.3232C12.9496 21.3225 12.9968 21.3648 12.9961 21.5254C12.9891 22.5539 12.9932 23.5828 12.9932 24.6113C12.9932 24.6486 12.9869 24.6852 12.9854 24.7002C11.3689 24.7002 9.76185 24.6996 8.15625 24.7012C7.52168 24.7012 6.88632 24.7125 6.25098 24.707C6.08851 24.7055 6.06913 24.7534 6.08301 24.9062C6.107 25.1787 6.09766 25.4547 6.09766 25.7295C6.09688 28.9173 6.0953 32.1061 6.09375 35.2939C6.09375 35.5618 6.10229 35.5703 6.37402 35.5703C8.45173 35.5703 10.5299 35.5672 12.6084 35.5742C13.0761 35.5757 12.986 35.5202 12.9883 35.96C12.9922 36.855 12.9891 37.7497 12.9922 38.6455C12.9922 38.7532 13.0028 38.861 13.0098 38.9922C12.8983 38.9852 12.7886 38.9727 12.6787 38.9727C11.3512 38.9711 10.0213 39.0152 8.69531 38.959C7.43421 38.9051 6.23081 38.5822 5.16016 37.8574C4.06796 37.1179 3.28677 36.1284 2.78516 34.9141C2.45072 34.1034 2.29997 33.255 2.29688 32.374C2.28991 30.4326 2.26279 28.4903 2.25195 26.5488C2.24886 26.0257 2.27913 25.5017 2.28223 24.9785C2.28377 24.7224 2.26561 24.707 2.00781 24.7031C1.40486 24.6945 0.800993 24.6945 0.197266 24.6953C0.138505 24.6954 0.0803903 24.7266 0 24.75C0.135446 24.166 0.266657 23.6034 0.397461 23.042C0.528245 22.4791 0.657947 21.9162 0.794922 21.3252C0.808847 21.3252 0.877029 21.326 0.944336 21.3252C1.3314 21.3189 1.71938 21.3105 2.10645 21.3066C2.20784 21.3051 2.25271 21.2728 2.25195 21.1611C2.24499 19.3344 2.24114 17.5074 2.2334 15.6807C2.23255 15.5762 2.19918 15.4709 2.17676 15.3438C2.52353 15.325 2.86507 15.3166 3.2041 15.2861C4.10822 15.2049 5.0117 15.1164 5.91504 15.0234ZM21.4619 21.3203C23.9971 21.3234 26.5332 21.3346 29.0684 21.3213C30.4789 21.3143 31.7347 21.7368 32.8789 22.5537C34.3804 23.6259 35.2173 25.1064 35.5557 26.8945C35.6222 27.2483 35.6035 27.6205 35.6035 27.9844C35.6035 31.4214 35.5998 34.8589 35.5967 38.2959V38.9629H31.834C31.8247 38.7687 31.8121 38.5923 31.8105 38.416C31.7966 36.7042 31.7816 34.9921 31.7754 33.2803C31.7738 32.6736 31.8 32.0676 31.8047 31.4609C31.807 31.1431 31.7773 31.1172 31.4707 31.1172C29.2019 31.1148 26.9339 31.1125 24.665 31.1133C24.2609 31.1133 23.8688 31.1764 23.5166 31.3975C22.9724 31.7387 22.6807 32.2575 22.584 32.8682C22.4997 33.3983 22.5139 33.9378 22.7646 34.4414C23.1293 35.1731 23.7279 35.5597 24.5283 35.5684C26.2692 35.5863 28.011 35.5717 29.752 35.5693C30.1839 35.5693 30.1779 35.5668 30.0742 35.9922C29.859 36.8786 29.6512 37.7671 29.4414 38.6543C29.368 38.9632 29.3699 38.9629 29.0615 38.9629C27.4661 38.9637 25.8687 39.0144 24.2764 38.9551C22.5136 38.8895 20.9901 38.2405 19.8838 36.7871C19.2647 35.9735 18.8758 35.0643 18.7559 34.043C18.7319 33.8408 18.6822 33.6418 18.6543 33.4404C18.5877 32.9524 18.7752 32.4976 18.8643 32.0322C18.9401 31.6347 19.0473 31.2309 19.2168 30.8662C19.809 29.5925 20.7636 28.6889 22.0625 28.1523C22.7438 27.8712 23.4528 27.7639 24.1836 27.7646C26.5283 27.767 28.873 27.7656 31.2178 27.7656C31.3252 27.7656 31.4343 27.753 31.541 27.7607C31.7346 27.7748 31.7861 27.6822 31.7861 27.501C31.7846 26.6842 31.7946 25.8666 31.7969 25.0498C31.7976 24.7234 31.7896 24.7107 31.4668 24.71C29.5671 24.7053 27.6663 24.7039 25.7666 24.7031C24.0954 24.7016 22.4242 24.7021 20.7529 24.7021H20.332C20.3475 24.6287 20.3646 24.5384 20.3848 24.4502C20.5992 23.5241 20.8203 22.5996 21.0254 21.6719C21.1036 21.3173 21.0865 21.3195 21.4619 21.3203ZM45.1484 15C45.2011 23.001 45.1554 30.99 45.1709 38.9746H41.3525C41.3525 38.6295 41.3547 38.3121 41.3516 37.9951C41.3338 36.398 41.3091 34.8012 41.2998 33.2041C41.2959 32.5279 41.3392 31.851 41.3369 31.1748C41.3299 29.5785 41.3052 27.9811 41.2959 26.3848C41.2944 26.0529 41.3412 25.7207 41.3389 25.3896C41.3334 24.6494 41.3002 23.9092 41.2979 23.1689C41.294 21.7891 41.3084 20.4101 41.3076 19.0303C41.3068 17.9198 41.296 16.8088 41.2852 15.6982C41.2844 15.5866 41.2532 15.4757 41.2354 15.3555C42.5243 15.2383 43.8138 15.1211 45.1484 15ZM61.6562 24.7734C60.7057 24.6774 59.7521 24.6244 58.7969 24.8398C57.9825 25.0242 57.2736 25.3805 56.6465 25.917C54.6562 27.6218 54.0063 30.7909 55.5352 33.1416C56.1033 34.0154 56.8191 34.7076 57.7773 35.1191C58.6002 35.4729 59.4613 35.6413 60.3623 35.6016C60.5107 35.5904 60.6608 35.5844 60.8105 35.5791C61.1324 35.5676 61.4547 35.5565 61.7637 35.4873C63.3259 35.1359 64.5279 34.2577 65.3818 32.8887C65.6937 32.3882 65.9196 31.8598 66.0078 31.2812C66.1378 30.4302 66.1009 29.5871 65.9307 28.7354C65.7542 27.8568 65.3272 27.1339 64.7598 26.4795C64.3015 25.9508 63.7403 25.5458 63.1279 25.2061C62.6658 24.95 62.1594 24.8242 61.6562 24.7734Z" fill="white"/>
<path d="M128 14.8084C127.017 15.5309 126.045 16.2662 125.084 17.0142C120.234 20.7832 115.648 24.8652 111.206 29.1049C111.117 29.1889 111.027 29.2736 110.94 29.3576C110.915 29.3331 110.892 29.3077 110.869 29.2832C110.771 29.1809 110.672 29.0787 110.574 28.9773C110.493 28.8925 110.413 28.8101 110.331 28.7254C100.523 18.5417 90.343 8.64494 79.1421 0C79.5319 0.508666 79.925 1.01654 80.3212 1.52124C80.6093 1.89046 80.8997 2.2573 81.1909 2.62494C89.4598 13.047 98.7673 22.6095 108.31 31.8518L108.337 31.8788C106.259 33.9182 104.205 35.9869 102.168 38.0683C94.9869 45.4773 87.9208 53.0241 81.389 61.0249C81.0465 61.4432 80.7063 61.8623 80.3678 62.2831C79.9092 62.8535 79.453 63.4264 79 64C88.0802 56.7884 96.5432 48.8383 104.831 40.7416C106.725 38.8725 108.608 36.9916 110.469 35.0884C110.551 35.0052 110.631 34.9221 110.712 34.8389C110.833 34.7145 110.956 34.5893 111.076 34.4657C111.165 34.5489 111.253 34.6321 111.342 34.7153C115.64 38.7363 120.03 42.6725 124.614 46.3647C125.684 47.2267 126.765 48.0753 127.858 48.9088C123.385 42.9997 118.472 37.4392 113.43 32.0174C118.61 26.5647 123.562 20.9013 128 14.8084Z" fill="url(#paint0_linear_84_1060)"/>
<defs>
<linearGradient id="paint0_linear_84_1060" x1="155.432" y1="5.46706" x2="63.0544" y2="-32.9052" gradientUnits="userSpaceOnUse">
<stop stop-color="#F3A80E"/>
<stop offset="1" stop-color="#EEE213"/>
</linearGradient>
</defs>
</svg>
