<svg width="779" height="636" viewBox="0 0 779 636" fill="none" xmlns="http://www.w3.org/2000/svg">
<path d="M336.266 630.5L336.766 636H622.266L622.766 631V629.5L621.766 628.5L622.266 625L621.766 623.5V622L623.266 621V619.5L624.266 610L623.766 609L624.266 605.5L625.266 603.5V602L625.766 601L627.266 599.5L628.266 588.737V584.5L629.766 575H629.266L627.766 575.5V574L630.766 573V571.5V570L631.766 569.5L632.266 563.5L633.266 561.5L632.766 560.5V558V556.5V555.5L635.266 555L635.766 546L636.266 541H637.766L638.266 539V537L638.766 535V529.5L639.266 529L639.766 526.5L640.766 511.5V508.5L642.766 506L641.766 502L642.766 501L643.266 498L644.766 497L645.266 495.5L645.766 490.5L647.266 490L648.766 487.5V486.5H648.266V484.5L650.766 483.5V483H648.766L649.266 482L650.266 480.5V478.5V476.5L650.766 475L651.766 474L652.266 469.5L655.766 466L654.266 464.5L655.766 460.5V458.5V457L657.766 456V453L656.766 451.5L657.266 444L659.766 442.5L658.766 442L659.266 438.5H658.266L658.766 437L661.266 436V415.5L662.266 414.5L660.766 414L661.766 412.734V409L662.266 407L663.766 405V399.5L662.266 395.5V392L663.766 390H661.766V387.5L660.766 359.5H658.766V357V354.5L657.766 349.5L655.266 337L652.266 331L651.766 328.5L648.766 327L649.766 325L650.266 321.5L648.266 320L647.766 319L647.266 317V315.5L645.766 315L645.266 313L643.266 311.5V309H642.266L641.766 310L640.766 310.5L641.266 304.5L638.766 304L639.766 301.5L636.766 301L638.766 299L637.766 297.5L636.266 295.5V293.5H632.766L630.766 288L628.766 286.5H626.766V282.5H624.766V280.5H623.266L622.766 278.5L623.266 277L619.766 276.5V274H618.266L616.266 270L615.266 268.5L613.266 267.5V266L611.766 265.5L606.766 261.5L602.766 257.5L599.266 251.5L600.766 249.5L600.266 243.5H599.266V240.5H593.766L592.766 239L594.266 234L593.766 222.5L592.266 220H585.266L584.266 221L577.766 222.5L572.266 222V217L571.766 216.5L569.766 209.5L568.266 209L567.266 200.5L561.266 179.5L562.266 176.5V165L559.766 164L561.766 163.5L561.266 159.5L560.766 158L562.766 155L563.766 154L562.766 152L563.766 150L564.266 142.5V137L564.766 135L566.766 132.5L564.766 130.5L565.266 127.5L566.266 127L566.766 124.5L567.766 119.5V116L569.266 114L570.266 105L568.266 97L566.766 95.5V91.5V86.5L567.766 84.5V80.5L560.266 71V67.5L564.766 68.5L567.766 62L568.266 59L564.266 56V52L561.766 45.5L557.266 43L560.266 37.5L550.266 34L548.766 28.5L544.766 28L542.766 22.5H537.766V20H532.266L526.766 18H523.266V12.5L505.266 11.5V6.5H490.266V3.5H485.766L489.266 2H465.266V4L458.766 4.5L457.766 6.5H450.766L449.766 10.5L437.766 11.5L436.266 15.5L428.766 17L426.766 20L421.766 22L411.266 22.5L408.766 24L407.266 25L405.766 27.5L404.766 28L403.766 28.5L402.766 30.5V31.5L399.766 33H396.766V34.5H398.766V35H390.766L388.266 35.5L387.766 38L387.266 40.5H374.766L370.766 38.5L375.766 43L374.766 45V50.5L370.266 48L365.266 45L363.266 41H359.766L358.766 51V57H356.266V52.5L353.766 52L351.266 49L350.766 54.5H349.266V48H348.266L346.766 54V61L344.766 56C344.599 57.1667 344.466 60.2 345.266 63C346.066 65.8 349.599 68.1667 351.266 69L351.766 74.5L352.266 78L348.766 77.5L346.766 70L345.766 76L349.766 82C351.266 83.5 354.966 86.9 357.766 88.5C360.566 90.1 373.932 92.1667 380.266 93V144L383.266 144.5C383.766 147 383.9 147.5 384.766 149C385.632 150.5 391.364 154 391.766 155.5C392.168 157 391.766 160 391.766 161C391.766 162 390.266 169 390.266 169C390.266 169 385.802 184 385.266 186C384.73 188 382.266 193.5 382.266 197C382.266 200.5 383.766 201 384.766 202C385.766 203 391.766 204.5 395.266 204.5C398.066 204.5 401.099 205.5 402.266 206L402.766 206.5V212.5C402.766 213 403.266 213.5 403.266 213.5L403.766 214L404.266 214.5C404.266 215 404.366 216.5 404.766 218.5C405.166 220.5 407.266 221.333 408.266 221.5C408.266 221.5 412.166 221.2 411.766 222C411.266 223 410.766 224.5 410.266 226.5C409.766 228.5 410.266 232 412.766 234C414.766 235.6 418.266 235.333 419.766 235V236.5V251.5C419.766 254 421.266 258 423.766 260.5C426.266 263 427.766 264.33 430.266 265C432.766 265.67 435.766 265.5 435.766 265.5H442.766L447.266 265L455.766 259.5H459.266V257.5L461.766 257L464.266 254.5H468.266V252.5L469.766 251.5L473.266 253L477.266 256.5L477.766 258.5L489.766 272.5V273.5L489.266 276L486.766 276.5L485.766 277.5L482.266 278L481.266 280H478.266V282H476.266V281.5H475.266L474.766 285.5H474.266L472.266 284L470.266 284.5L469.266 287H467.266L464.266 287.5L462.766 293.5V290.5H461.766L460.766 292.5L459.266 293.5H458.266V294.5L457.266 295.5L455.266 297L454.766 299.5L453.766 300V304L454.766 304.5H455.766V306.5H454.766V316.5H454.266V317V319.5L452.766 320.5V318.5L451.266 319V323L450.766 324L450.266 325V327L452.766 327.5V328L451.266 329.5L448.266 330.5L445.266 331.5H443.766L443.266 334V336L441.766 337L440.266 337.5V338L440.766 338.5V339.5L440.266 340.5H438.266L436.766 341.5L437.266 343H437.766L437.266 344.5L434.766 345.5L435.266 346V346.5V348H433.766L432.766 349.5V352L430.766 352.5V356L428.766 356.5L429.266 360H428.266L427.266 359.5H425.266L426.266 361L426.766 362.5L425.766 364L423.266 365V368L421.266 369.5L422.266 372.5L419.766 376H416.266L415.766 379L414.766 384.5L411.766 386V389.5L409.766 390V393L408.766 393.5L407.766 400.5L406.266 402V404.5H404.766L402.766 411.5L399.266 412.5V415V424.5L396.766 425V431L393.766 431.5V436L391.266 436.5V441.5L389.766 442L388.766 447.5L389.266 449.5L385.766 460L384.766 461.5V464.5L381.766 465.5V467.5L380.766 471.5H378.266V477L376.766 477.5V481.5L377.766 483.5L375.766 489.5H374.266V494.5L372.266 500.5L369.766 502.5V511.5H367.766L366.766 519.5H365.766L365.266 527.5H356.766V523.5H352.266H347.266L345.766 519H342.766L342.266 513.5H339.266L337.266 517.5H329.266H316.266H311.266L310.766 515L315.766 513.5L317.266 511.5L309.766 511V507L306.766 507.5L305.766 509L303.766 507.5V503.5H298.766H294.266V501.5L291.766 499.5L292.266 497.5L288.766 496.5L288.266 498.5L286.766 499V494.5L283.766 494L282.766 497.5L279.766 494L276.266 493.5L270.766 493L268.766 492L268.266 490L260.266 490.5V489H254.766L255.766 484.5L256.766 483L253.766 481L251.766 480V477.5H242.266V474.5H239.266L239.766 472.5L243.266 471.5L237.266 470.5V467.5H233.766V464H230.266L233.766 461H228.266L227.766 458L223.266 456.5V453.5L222.266 452H219.766L218.766 451V449H216.266L215.266 445.5L212.766 444.5V443H209.766V440.5H206.766V439L200.266 437.5L200.766 436L193.266 435.5L192.766 434.5L183.766 433.5L181.766 432H173.266H170.266V435.5L169.266 435H167.766L167.266 436.5L165.766 436L160.266 438.5L158.266 438L157.266 437H153.766V435.5L152.766 434.5V432.5H150.266V430L146.766 429.5L147.266 428.5L148.266 425.5H144.266L145.266 422H141.266L142.266 421L143.266 419.5H142.266H139.766L140.266 416H139.266L138.266 415.5L138.766 413L134.766 412L136.266 409.5H132.266L132.766 406.5L129.766 407V403.5H127.266L128.266 401.5L126.766 400.5L126.266 399L126.766 398H125.266L124.266 397.5V395.5L121.766 395V392.5H119.766V390L117.266 389.5V387L115.766 386V384L113.766 383.5L113.266 380H112.266H111.266L112.266 377.5H111.266H109.766L109.266 377V375L108.766 373H106.766L106.266 372.5V370.5L105.266 371L103.766 370.5L103.266 368L100.766 369L100.266 368.5L102.766 366.5L102.266 365.5L99.7656 366.5L100.266 365L97.2656 363.5L98.2656 362.5V361.5L94.7656 361L96.2656 359.5V358.5H93.7656L94.7656 356.5H92.2656V354H89.7656L90.2656 351.5H87.2656L86.7656 350.5L88.2656 348.5L85.2656 348V346L85.7656 344.5H82.7656V343.5L83.2656 341H81.7656L81.2656 342H80.2656L80.7656 337.5L78.2656 338L77.7656 334H77.2656L75.7656 333L75.2656 331.5V330.5H71.2656V328.5L69.7656 328L69.2656 329.5H67.7656V328.5H66.7656L27.7656 333V337.5L28.2656 338.5L28.7656 342.5H30.7656V344.5H33.7656V345.5L32.7656 346V347.5L33.2656 349L34.7656 349.5L35.2656 351H32.2656V354.5H35.7656V358H39.7656L40.2656 361.5H42.2656L42.7656 363V367.5L44.7656 367L45.7656 367.5L45.2656 369.5L46.7656 370.5H50.2656L50.7656 372L51.2656 376.5H53.7656L52.7656 378.5H54.2656V381V386L55.7656 387H60.2656L58.7656 389.5H60.7656L61.2656 392.5H64.7656L66.2656 395L66.7656 397L68.2656 397.5L70.7656 398L68.7656 401L69.2656 402H74.2656V406.5L75.2656 407L79.7656 410.5L79.2656 412L80.2656 413L82.2656 414L81.7656 416.5L85.7656 418L84.2656 419L85.2656 421.5H86.2656L88.2656 422L89.2656 423L88.7656 424V427.5L91.2656 428.5H93.2656L93.7656 432.5L95.2656 433L95.7656 436.5L98.2656 436V439.5L101.266 440V443.5L102.266 444.5L103.766 444L104.266 449L102.766 449.5V451L104.766 451.5V455L109.266 455.5V458.5L110.266 459H112.766L111.266 461V462H113.266L115.266 461L115.766 462.5L116.266 472L119.766 473L123.766 476V479L122.766 479.5L123.266 481H126.766L125.766 483.5L127.266 484V486.5L125.766 488L124.766 489V490L125.266 491L128.266 490.5L129.266 492L129.766 493.5L131.766 494L132.766 495V496.5H134.766V498.5L135.266 499.5H137.266V501.5H138.766L139.766 500.5H140.766V502.5L142.766 503L143.266 504.5L144.266 505.5L146.266 506L146.766 514H147.766V515.5H150.766V517.5L153.266 520.5L156.266 522.5L161.266 523.5V525.5H157.766L156.266 526L157.266 529L161.766 532.5H166.766V534.5H170.766L171.766 537.5L183.766 538L184.766 540H194.766L195.766 542H201.766L204.766 543.5H229.766L231.266 546.5H236.766L237.766 553H239.266L240.266 555H243.766V570.5H250.766V571.5L249.766 572V573.5H253.266L253.766 577L257.766 577.5L261.266 578L262.766 578.5L263.766 581L269.766 580.5V582L272.766 588L273.766 587H275.266L275.766 589.5H282.766L283.266 591L286.766 591.5L287.766 594H292.266L292.766 600L297.766 600.5L298.266 604L302.766 603.5L303.266 606.5H309.266V609H311.266L311.766 607L312.766 609L313.266 609.5H318.766L318.266 611.5L319.266 613L322.266 613.5V615.5L322.766 616H323.266V615H323.766L324.266 616V618H324.766L325.266 618.5H325.766H326.766V619.5L326.266 620.5H327.766L328.266 621H337.766V624.5H337.266L336.766 625.5L336.266 626L336.766 627V629.5H335.266L336.266 630.5Z" fill="#440E0E"/>
</svg>
